Griffith_Gothic-Italic.ufo
<glyph name="quotedbl" format="1">
  <advance width="360"/>
  <unicode hex="0022"/>
  <outline>
    <contour>
      <point x="405" y="720" type="line"/>
      <point x="325" y="489" type="line"/>
      <point x="276" y="489" type="line"/>
      <point x="311" y="720" type="line"/>
    </contour>
    <contour>
      <point x="242" y="720" type="line"/>
      <point x="162" y="489" type="line"/>
      <point x="113" y="489" type="line"/>
      <point x="149" y="720" type="line"/>
    </contour>
  </outline>
</glyph>
<glyph name="dollar" format="1">
  <advance width="557"/>
  <unicode hex="0024"/>
  <outline>
    <contour>
      <point x="578" y="616" type="curve"/>
      <point x="526" y="565" type="line"/>
      <point x="493" y="609"/>
      <point x="453" y="640"/>
      <point x="402" y="652" type="curve"/>
      <point x="339" y="397" type="line"/>
      <point x="455" y="339"/>
      <point x="501" y="286"/>
      <point x="501" y="203" type="curve" smooth="yes"/>
      <point x="501" y="79"/>
      <point x="397" y="-1"/>
      <point x="255" y="-1" type="curve" smooth="yes"/>
      <point x="251" y="-1"/>
      <point x="248" y="-1"/>
      <point x="244" y="-1" type="curve"/>
      <point x="220" y="-95" type="line"/>
      <point x="164" y="-95" type="line"/>
      <point x="190" y="5" type="line"/>
      <point x="110" y="20"/>
      <point x="45" y="62"/>
      <point x="3" y="119" type="curve"/>
      <point x="55" y="170" type="line"/>
      <point x="96" y="114"/>
      <point x="143" y="78"/>
      <point x="208" y="66" type="curve"/>
      <point x="280" y="350" type="line"/>
      <point x="184" y="398"/>
      <point x="128" y="444"/>
      <point x="128" y="530" type="curve" smooth="yes"/>
      <point x="128" y="648"/>
      <point x="227" y="721"/>
      <point x="352" y="721" type="curve" smooth="yes"/>
      <point x="357" y="721"/>
      <point x="362" y="721"/>
      <point x="367" y="721" type="curve"/>
      <point x="377" y="762" type="line"/>
      <point x="433" y="762" type="line"/>
      <point x="421" y="714" type="line"/>
      <point x="486" y="701"/>
      <point x="537" y="667"/>
    </contour>
    <contour>
      <point x="357" y="658" type="line"/>
      <point x="354" y="658"/>
      <point x="351" y="658"/>
      <point x="348" y="658" type="curve" smooth="yes"/>
      <point x="261" y="658"/>
      <point x="207" y="611"/>
      <point x="207" y="537" type="curve" smooth="yes"/>
      <point x="207" y="487"/>
      <point x="231" y="456"/>
      <point x="297" y="419" type="curve"/>
    </contour>
    <contour>
      <point x="422" y="196" type="curve" smooth="yes"/>
      <point x="422" y="249"/>
      <point x="395" y="287"/>
      <point x="321" y="328" type="curve"/>
      <point x="255" y="62" type="line"/>
      <point x="257" y="62"/>
      <point x="259" y="62"/>
      <point x="261" y="62" type="curve" smooth="yes"/>
      <point x="368" y="62"/>
      <point x="422" y="120"/>
    </contour>
  </outline>
</glyph>
<glyph name="percent" format="1">
  <advance width="854"/>
  <unicode hex="0025"/>
  <outline>
    <contour>
      <point x="429" y="578" type="curve" smooth="yes"/>
      <point x="429" y="462"/>
      <point x="350" y="333"/>
      <point x="229" y="333" type="curve" smooth="yes"/>
      <point x="153" y="333"/>
      <point x="87" y="383"/>
      <point x="87" y="483" type="curve" smooth="yes"/>
      <point x="87" y="598"/>
      <point x="166" y="727"/>
      <point x="287" y="727" type="curve" smooth="yes"/>
      <point x="363" y="727"/>
      <point x="429" y="678"/>
    </contour>
    <contour>
      <point x="803" y="720" type="line"/>
      <point x="473" y="350" type="line"/>
      <point x="182" y="0" type="line"/>
      <point x="101" y="0" type="line"/>
      <point x="431" y="370" type="line"/>
      <point x="721" y="720" type="line"/>
    </contour>
    <contour>
      <point x="817" y="237" type="curve" smooth="yes"/>
      <point x="817" y="122"/>
      <point x="738" y="-7"/>
      <point x="616" y="-7" type="curve" smooth="yes"/>
      <point x="540" y="-7"/>
      <point x="474" y="42"/>
      <point x="474" y="142" type="curve" smooth="yes"/>
      <point x="474" y="258"/>
      <point x="553" y="387"/>
      <point x="674" y="387" type="curve" smooth="yes"/>
      <point x="751" y="387"/>
      <point x="817" y="337"/>
    </contour>
    <contour>
      <point x="361" y="576" type="curve" smooth="yes"/>
      <point x="361" y="635"/>
      <point x="331" y="672"/>
      <point x="284" y="672" type="curve" smooth="yes"/>
      <point x="203" y="672"/>
      <point x="156" y="564"/>
      <point x="156" y="485" type="curve" smooth="yes"/>
      <point x="156" y="426"/>
      <point x="184" y="388"/>
      <point x="232" y="388" type="curve" smooth="yes"/>
      <point x="313" y="388"/>
      <point x="361" y="496"/>
    </contour>
    <contour>
      <point x="748" y="235" type="curve" smooth="yes"/>
      <point x="748" y="294"/>
      <point x="719" y="332"/>
      <point x="672" y="332" type="curve" smooth="yes"/>
      <point x="591" y="332"/>
      <point x="544" y="224"/>
      <point x="544" y="144" type="curve" smooth="yes"/>
      <point x="544" y="85"/>
      <point x="572" y="48"/>
      <point x="619" y="48" type="curve" smooth="yes"/>
      <point x="700" y="48"/>
      <point x="748" y="156"/>
    </contour>
  </outline>
</glyph>
<glyph name="quotesingle" format="1">
  <advance width="198"/>
  <unicode hex="0027"/>
  <outline>
    <contour>
      <point x="243" y="720" type="line"/>
      <point x="163" y="489" type="line"/>
      <point x="113" y="489" type="line"/>
      <point x="149" y="720" type="line"/>
    </contour>
  </outline>
</glyph>
<glyph name="parenleft" format="1">
  <advance width="328"/>
  <unicode hex="0028"/>
  <outline>
    <contour>
      <point x="424" y="735" type="line"/>
      <point x="239" y="584"/>
      <point x="146" y="395"/>
      <point x="146" y="199" type="curve" smooth="yes"/>
      <point x="146" y="85"/>
      <point x="165" y="4"/>
      <point x="213" y="-95" type="curve"/>
      <point x="143" y="-95" type="line"/>
      <point x="93" y="-14"/>
      <point x="55" y="91"/>
      <point x="55" y="207" type="curve" smooth="yes"/>
      <point x="55" y="422"/>
      <point x="170" y="608"/>
      <point x="340" y="735" type="curve"/>
    </contour>
  </outline>
</glyph>
<glyph name="asterisk" format="1">
  <advance width="440"/>
  <unicode hex="002A"/>
  <outline>
    <contour>
      <point x="469" y="562" type="line"/>
      <point x="314" y="536" type="line"/>
      <point x="428" y="423" type="line"/>
      <point x="363" y="376" type="line"/>
      <point x="287" y="521" type="line"/>
      <point x="211" y="376" type="line"/>
      <point x="146" y="423" type="line"/>
      <point x="259" y="536" type="line"/>
      <point x="103" y="562" type="line"/>
      <point x="128" y="638" type="line"/>
      <point x="271" y="563" type="line"/>
      <point x="246" y="720" type="line"/>
      <point x="327" y="720" type="line"/>
      <point x="302" y="563" type="line"/>
      <point x="445" y="638" type="line"/>
    </contour>
  </outline>
</glyph>
<glyph name="comma" format="1">
  <advance width="198"/>
  <unicode hex="002C"/>
  <outline>
    <contour>
      <point x="127" y="113" type="line"/>
      <point x="-8" y="-118" type="line"/>
      <point x="-63" y="-118" type="line"/>
      <point x="26" y="113" type="line"/>
    </contour>
  </outline>
</glyph>
<glyph name="hyphen" format="1">
  <advance width="316"/>
  <unicode hex="002D"/>
  <unicode hex="2010"/>
  <unicode hex="2011"/>
  <outline>
    <contour>
      <point x="293" y="321" type="line"/>
      <point x="274" y="244" type="line"/>
      <point x="33" y="244" type="line"/>
      <point x="52" y="321" type="line"/>
    </contour>
  </outline>
</glyph>
<glyph name="zero" format="1">
  <advance width="598"/>
  <unicode hex="0030"/>
  <outline>
    <contour>
      <point x="589" y="496" type="line" smooth="yes"/>
      <point x="589" y="445"/>
      <point x="582" y="387"/>
      <point x="571" y="340" type="curve" smooth="yes"/>
      <point x="521" y="125"/>
      <point x="402" y="-12"/>
      <point x="253" y="-12" type="curve" smooth="yes"/>
      <point x="129" y="-12"/>
      <point x="58" y="78"/>
      <point x="58" y="221" type="curve" smooth="yes"/>
      <point x="58" y="224" type="line" smooth="yes"/>
      <point x="58" y="275"/>
      <point x="65" y="333"/>
      <point x="76" y="380" type="curve" smooth="yes"/>
      <point x="125" y="595"/>
      <point x="245" y="732"/>
      <point x="394" y="732" type="curve" smooth="yes"/>
      <point x="517" y="732"/>
      <point x="589" y="642"/>
      <point x="589" y="499" type="curve" smooth="yes"/>
    </contour>
    <contour>
      <point x="498" y="498" type="curve" smooth="yes"/>
      <point x="498" y="500" type="line" smooth="yes"/>
      <point x="498" y="595"/>
      <point x="464" y="660"/>
      <point x="387" y="660" type="curve" smooth="yes"/>
      <point x="293" y="660"/>
      <point x="217" y="554"/>
      <point x="174" y="396" type="curve" smooth="yes"/>
      <point x="158" y="338"/>
      <point x="149" y="274"/>
      <point x="149" y="222" type="curve" smooth="yes"/>
      <point x="149" y="220" type="line" smooth="yes"/>
      <point x="149" y="125"/>
      <point x="183" y="60"/>
      <point x="260" y="60" type="curve" smooth="yes"/>
      <point x="353" y="60"/>
      <point x="429" y="166"/>
      <point x="473" y="324" type="curve" smooth="yes"/>
      <point x="489" y="382"/>
      <point x="498" y="446"/>
    </contour>
  </outline>
</glyph>
<glyph name="six" format="1">
  <advance width="564"/>
  <unicode hex="0036"/>
  <outline>
    <contour>
      <point x="251" y="-12" type="curve" smooth="yes"/>
      <point x="127" y="-12"/>
      <point x="42" y="59"/>
      <point x="42" y="191" type="curve" smooth="yes"/>
      <point x="42" y="404"/>
      <point x="207" y="597"/>
      <point x="402" y="720" type="curve"/>
      <point x="532" y="720" type="line"/>
      <point x="345" y="615"/>
      <point x="210" y="480"/>
      <point x="161" y="371" type="curve"/>
      <point x="167" y="371" type="line"/>
      <point x="225" y="425"/>
      <point x="280" y="452"/>
      <point x="352" y="452" type="curve" smooth="yes"/>
      <point x="460" y="452"/>
      <point x="534" y="390"/>
      <point x="534" y="266" type="curve" smooth="yes"/>
      <point x="534" y="115"/>
      <point x="408" y="-12"/>
    </contour>
    <contour>
      <point x="257" y="53" type="curve" smooth="yes"/>
      <point x="360" y="53"/>
      <point x="443" y="146"/>
      <point x="443" y="256" type="curve" smooth="yes"/>
      <point x="443" y="340"/>
      <point x="399" y="388"/>
      <point x="317" y="388" type="curve" smooth="yes"/>
      <point x="217" y="388"/>
      <point x="128" y="302"/>
      <point x="128" y="185" type="curve" smooth="yes"/>
      <point x="128" y="104"/>
      <point x="179" y="53"/>
    </contour>
  </outline>
</glyph>
<glyph name="seven" format="1">
  <advance width="503"/>
  <unicode hex="0037"/>
  <outline>
    <contour>
      <point x="595" y="720" type="line"/>
      <point x="581" y="665" type="line"/>
      <point x="395" y="478"/>
      <point x="232" y="222"/>
      <point x="143" y="0" type="curve"/>
      <point x="47" y="0" type="line"/>
      <point x="130" y="198"/>
      <point x="291" y="457"/>
      <point x="478" y="647" type="curve"/>
      <point x="112" y="647" type="line"/>
      <point x="129" y="720" type="line"/>
    </contour>
  </outline>
</glyph>
<glyph name="eight" format="1">
  <advance width="586"/>
  <unicode hex="0038"/>
  <outline>
    <contour>
      <point x="584" y="561" type="curve" smooth="yes"/>
      <point x="584" y="464"/>
      <point x="503" y="400"/>
      <point x="426" y="378" type="curve"/>
      <point x="424" y="372" type="line"/>
      <point x="486" y="343"/>
      <point x="533" y="292"/>
      <point x="533" y="211" type="curve" smooth="yes"/>
      <point x="533" y="87"/>
      <point x="422" y="-11"/>
      <point x="266" y="-11" type="curve" smooth="yes"/>
      <point x="122" y="-11"/>
      <point x="35" y="66"/>
      <point x="35" y="177" type="curve" smooth="yes"/>
      <point x="35" y="292"/>
      <point x="123" y="365"/>
      <point x="221" y="391" type="curve"/>
      <point x="223" y="398" type="line"/>
      <point x="166" y="431"/>
      <point x="134" y="473"/>
      <point x="134" y="540" type="curve" smooth="yes"/>
      <point x="134" y="647"/>
      <point x="232" y="732"/>
      <point x="371" y="732" type="curve" smooth="yes"/>
      <point x="505" y="732"/>
      <point x="584" y="665"/>
    </contour>
    <contour>
      <point x="495" y="557" type="curve" smooth="yes"/>
      <point x="495" y="623"/>
      <point x="449" y="668"/>
      <point x="367" y="668" type="curve" smooth="yes"/>
      <point x="278" y="668"/>
      <point x="220" y="606"/>
      <point x="220" y="531" type="curve" smooth="yes"/>
      <point x="220" y="457"/>
      <point x="272" y="409"/>
      <point x="343" y="409" type="curve" smooth="yes"/>
      <point x="435" y="409"/>
      <point x="495" y="481"/>
    </contour>
    <contour>
      <point x="446" y="218" type="curve" smooth="yes"/>
      <point x="446" y="298"/>
      <point x="389" y="356"/>
      <point x="301" y="356" type="curve" smooth="yes"/>
      <point x="203" y="356"/>
      <point x="124" y="279"/>
      <point x="124" y="188" type="curve" smooth="yes"/>
      <point x="124" y="108"/>
      <point x="175" y="53"/>
      <point x="270" y="53" type="curve" smooth="yes"/>
      <point x="373" y="53"/>
      <point x="446" y="126"/>
    </contour>
  </outline>
</glyph>
<glyph name="semicolon" format="1">
  <advance width="215"/>
  <unicode hex="003B"/>
  <outline>
    <contour>
      <point x="218" y="467" type="curve" smooth="yes"/>
      <point x="218" y="433"/>
      <point x="194" y="408"/>
      <point x="160" y="408" type="curve" smooth="yes"/>
      <point x="127" y="408"/>
      <point x="102" y="433"/>
      <point x="102" y="467" type="curve" smooth="yes"/>
      <point x="102" y="500"/>
      <point x="127" y="525"/>
      <point x="160" y="525" type="curve" smooth="yes"/>
      <point x="194" y="525"/>
      <point x="218" y="500"/>
    </contour>
    <contour>
      <point x="126" y="113" type="line"/>
      <point x="-9" y="-118" type="line"/>
      <point x="-63" y="-118" type="line"/>
      <point x="25" y="113" type="line"/>
    </contour>
  </outline>
</glyph>
<glyph name="equal" format="1">
  <advance width="600"/>
  <unicode hex="003D"/>
  <outline>
    <contour>
      <point x="565" y="438" type="line"/>
      <point x="82" y="438" type="line"/>
      <point x="82" y="515" type="line"/>
      <point x="565" y="515" type="line"/>
    </contour>
    <contour>
      <point x="565" y="195" type="line"/>
      <point x="82" y="195" type="line"/>
      <point x="82" y="272" type="line"/>
      <point x="565" y="272" type="line"/>
    </contour>
  </outline>
</glyph>
<glyph name="greater" format="1">
  <advance width="600"/>
  <unicode hex="003E"/>
  <outline>
    <contour>
      <point x="577" y="318" type="line"/>
      <point x="78" y="95" type="line"/>
      <point x="78" y="175" type="line"/>
      <point x="492" y="355" type="line"/>
      <point x="78" y="535" type="line"/>
      <point x="78" y="615" type="line"/>
      <point x="577" y="392" type="line"/>
    </contour>
  </outline>
</glyph>
<glyph name="E" format="1">
  <advance width="553"/>
  <unicode hex="0045"/>
  <outline>
    <contour>
      <point x="619" y="720" type="line"/>
      <point x="602" y="647" type="line"/>
      <point x="265" y="647" type="line"/>
      <point x="206" y="410" type="line"/>
      <point x="479" y="410" type="line"/>
      <point x="462" y="341" type="line"/>
      <point x="190" y="341" type="line"/>
      <point x="123" y="73" type="line"/>
      <point x="470" y="73" type="line"/>
      <point x="451" y="0" type="line"/>
      <point x="13" y="0" type="line"/>
      <point x="192" y="720" type="line"/>
    </contour>
  </outline>
</glyph>
<glyph name="F" format="1">
  <advance width="523"/>
  <unicode hex="0046"/>
  <outline>
    <contour>
      <point x="614" y="720" type="line"/>
      <point x="596" y="647" type="line"/>
      <point x="266" y="647" type="line"/>
      <point x="204" y="394" type="line"/>
      <point x="461" y="394" type="line"/>
      <point x="444" y="323" type="line"/>
      <point x="186" y="323" type="line"/>
      <point x="105" y="0" type="line"/>
      <point x="13" y="0" type="line"/>
      <point x="192" y="720" type="line"/>
    </contour>
  </outline>
</glyph>
<glyph name="J" format="1">
  <advance width="496"/>
  <unicode hex="004A"/>
  <outline>
    <contour>
      <point x="537" y="720" type="line"/>
      <point x="410" y="208" type="line" smooth="yes"/>
      <point x="374" y="61"/>
      <point x="296" y="-12"/>
      <point x="171" y="-12" type="curve" smooth="yes"/>
      <point x="66" y="-12"/>
      <point x="0" y="41"/>
      <point x="0" y="130" type="curve" smooth="yes"/>
      <point x="0" y="149"/>
      <point x="2" y="168"/>
      <point x="7" y="191" type="curve"/>
      <point x="98" y="213" type="line"/>
      <point x="92" y="188"/>
      <point x="89" y="167"/>
      <point x="89" y="148" type="curve" smooth="yes"/>
      <point x="89" y="90"/>
      <point x="119" y="62"/>
      <point x="179" y="62" type="curve" smooth="yes"/>
      <point x="246" y="62"/>
      <point x="293" y="111"/>
      <point x="319" y="216" type="curve" smooth="yes"/>
      <point x="445" y="720" type="line"/>
    </contour>
  </outline>
</glyph>
<glyph name="K" format="1">
  <advance width="601"/>
  <unicode hex="004B"/>
  <outline>
    <contour>
      <point x="701" y="720" type="line"/>
      <point x="331" y="387" type="line"/>
      <point x="536" y="0" type="line"/>
      <point x="436" y="0" type="line"/>
      <point x="231" y="391" type="line"/>
      <point x="232" y="394" type="line"/>
      <point x="591" y="720" type="line"/>
    </contour>
    <contour>
      <point x="285" y="720" type="line"/>
      <point x="105" y="0" type="line"/>
      <point x="13" y="0" type="line"/>
      <point x="192" y="720" type="line"/>
    </contour>
  </outline>
</glyph>
<glyph name="L" format="1">
  <advance width="510"/>
  <unicode hex="004C"/>
  <outline>
    <contour>
      <point x="447" y="77" type="line"/>
      <point x="428" y="0" type="line"/>
      <point x="13" y="0" type="line"/>
      <point x="192" y="720" type="line"/>
      <point x="285" y="720" type="line"/>
      <point x="125" y="77" type="line"/>
    </contour>
  </outline>
</glyph>
<glyph name="M" format="1">
  <advance width="839"/>
  <unicode hex="004D"/>
  <outline>
    <contour>
      <point x="875" y="720" type="line"/>
      <point x="696" y="0" type="line"/>
      <point x="608" y="0" type="line"/>
      <point x="765" y="628" type="line"/>
      <point x="756" y="628" type="line"/>
      <point x="402" y="0" type="line"/>
      <point x="303" y="0" type="line"/>
      <point x="262" y="628" type="line"/>
      <point x="253" y="628" type="line"/>
      <point x="97" y="0" type="line"/>
      <point x="13" y="0" type="line"/>
      <point x="192" y="720" type="line"/>
      <point x="340" y="720" type="line"/>
      <point x="376" y="115" type="line"/>
      <point x="384" y="115" type="line"/>
      <point x="723" y="720" type="line"/>
    </contour>
  </outline>
</glyph>
<glyph name="N" format="1">
  <advance width="642"/>
  <unicode hex="004E"/>
  <outline>
    <contour>
      <point x="678" y="720" type="line"/>
      <point x="498" y="0" type="line"/>
      <point x="400" y="0" type="line"/>
      <point x="253" y="591" type="line"/>
      <point x="245" y="591" type="line"/>
      <point x="99" y="0" type="line"/>
      <point x="13" y="0" type="line"/>
      <point x="192" y="720" type="line"/>
      <point x="299" y="720" type="line"/>
      <point x="442" y="145" type="line"/>
      <point x="449" y="145" type="line"/>
      <point x="592" y="720" type="line"/>
    </contour>
  </outline>
</glyph>
<glyph name="O" format="1">
  <advance width="620"/>
  <unicode hex="004F"/>
  <outline>
    <contour>
      <point x="612" y="488" type="line" smooth="yes"/>
      <point x="612" y="442"/>
      <point x="605" y="391"/>
      <point x="594" y="340" type="curve" smooth="yes"/>
      <point x="549" y="141"/>
      <point x="435" y="-12"/>
      <point x="267" y="-12" type="curve" smooth="yes"/>
      <point x="135" y="-12"/>
      <point x="58" y="80"/>
      <point x="58" y="229" type="curve" smooth="yes"/>
      <point x="58" y="232" type="line" smooth="yes"/>
      <point x="58" y="278"/>
      <point x="65" y="329"/>
      <point x="76" y="380" type="curve" smooth="yes"/>
      <point x="121" y="579"/>
      <point x="235" y="732"/>
      <point x="403" y="732" type="curve" smooth="yes"/>
      <point x="534" y="732"/>
      <point x="612" y="640"/>
      <point x="612" y="491" type="curve" smooth="yes"/>
    </contour>
    <contour>
      <point x="519" y="490" type="curve" smooth="yes"/>
      <point x="519" y="492" type="line" smooth="yes"/>
      <point x="519" y="586"/>
      <point x="481" y="660"/>
      <point x="395" y="660" type="curve" smooth="yes"/>
      <point x="294" y="660"/>
      <point x="214" y="545"/>
      <point x="175" y="398" type="curve" smooth="yes"/>
      <point x="158" y="336"/>
      <point x="150" y="278"/>
      <point x="150" y="230" type="curve" smooth="yes"/>
      <point x="150" y="228" type="line" smooth="yes"/>
      <point x="150" y="134"/>
      <point x="188" y="60"/>
      <point x="274" y="60" type="curve" smooth="yes"/>
      <point x="376" y="60"/>
      <point x="455" y="175"/>
      <point x="494" y="322" type="curve" smooth="yes"/>
      <point x="511" y="384"/>
      <point x="519" y="442"/>
    </contour>
  </outline>
</glyph>
<glyph name="P" format="1">
  <advance width="572"/>
  <unicode hex="0050"/>
  <outline>
    <contour>
      <point x="602" y="547" type="curve" smooth="yes"/>
      <point x="602" y="397"/>
      <point x="480" y="299"/>
      <point x="306" y="299" type="curve" smooth="yes"/>
      <point x="180" y="299" type="line"/>
      <point x="105" y="0" type="line"/>
      <point x="13" y="0" type="line"/>
      <point x="192" y="720" type="line"/>
      <point x="386" y="720" type="line" smooth="yes"/>
      <point x="525" y="720"/>
      <point x="602" y="660"/>
    </contour>
    <contour>
      <point x="509" y="539" type="curve" smooth="yes"/>
      <point x="509" y="612"/>
      <point x="465" y="652"/>
      <point x="370" y="652" type="curve" smooth="yes"/>
      <point x="265" y="652" type="line"/>
      <point x="194" y="368" type="line"/>
      <point x="304" y="368" type="line" smooth="yes"/>
      <point x="427" y="368"/>
      <point x="509" y="432"/>
    </contour>
  </outline>
</glyph>
<glyph name="R" format="1">
  <advance width="599"/>
  <unicode hex="0052"/>
  <outline>
    <contour>
      <point x="609" y="551" type="curve" smooth="yes"/>
      <point x="609" y="423"/>
      <point x="516" y="340"/>
      <point x="380" y="324" type="curve"/>
      <point x="511" y="0" type="line"/>
      <point x="412" y="0" type="line"/>
      <point x="290" y="313" type="line"/>
      <point x="183" y="313" type="line"/>
      <point x="105" y="0" type="line"/>
      <point x="13" y="0" type="line"/>
      <point x="192" y="720" type="line"/>
      <point x="395" y="720" type="line" smooth="yes"/>
      <point x="534" y="720"/>
      <point x="609" y="663"/>
    </contour>
    <contour>
      <point x="518" y="543" type="curve" smooth="yes"/>
      <point x="518" y="615"/>
      <point x="473" y="652"/>
      <point x="378" y="652" type="curve" smooth="yes"/>
      <point x="265" y="652" type="line"/>
      <point x="196" y="378" type="line"/>
      <point x="315" y="378" type="line" smooth="yes"/>
      <point x="438" y="378"/>
      <point x="518" y="436"/>
    </contour>
  </outline>
</glyph>
<glyph name="S" format="1">
  <advance width="566"/>
  <unicode hex="0053"/>
  <outline>
    <contour>
      <point x="583" y="580" type="curve"/>
      <point x="510" y="539" type="line"/>
      <point x="485" y="615"/>
      <point x="437" y="661"/>
      <point x="352" y="661" type="curve" smooth="yes"/>
      <point x="269" y="661"/>
      <point x="221" y="607"/>
      <point x="221" y="546" type="curve" smooth="yes"/>
      <point x="221" y="490"/>
      <point x="246" y="457"/>
      <point x="346" y="407" type="curve" smooth="yes"/>
      <point x="463" y="348"/>
      <point x="506" y="295"/>
      <point x="506" y="204" type="curve" smooth="yes"/>
      <point x="506" y="72"/>
      <point x="398" y="-12"/>
      <point x="263" y="-12" type="curve" smooth="yes"/>
      <point x="124" y="-12"/>
      <point x="35" y="53"/>
      <point x="9" y="162" type="curve"/>
      <point x="82" y="205" type="line"/>
      <point x="101" y="109"/>
      <point x="169" y="59"/>
      <point x="269" y="59" type="curve" smooth="yes"/>
      <point x="362" y="59"/>
      <point x="417" y="120"/>
      <point x="417" y="193" type="curve" smooth="yes"/>
      <point x="417" y="250"/>
      <point x="393" y="286"/>
      <point x="293" y="336" type="curve" smooth="yes"/>
      <point x="182" y="391"/>
      <point x="131" y="441"/>
      <point x="131" y="535" type="curve" smooth="yes"/>
      <point x="131" y="649"/>
      <point x="229" y="732"/>
      <point x="359" y="732" type="curve" smooth="yes"/>
      <point x="480" y="732"/>
      <point x="554" y="674"/>
    </contour>
  </outline>
</glyph>
<glyph name="T" format="1">
  <advance width="564"/>
  <unicode hex="0054"/>
  <outline>
    <contour>
      <point x="659" y="720" type="line"/>
      <point x="640" y="643" type="line"/>
      <point x="423" y="643" type="line"/>
      <point x="264" y="0" type="line"/>
      <point x="171" y="0" type="line"/>
      <point x="331" y="643" type="line"/>
      <point x="114" y="643" type="line"/>
      <point x="134" y="720" type="line"/>
    </contour>
  </outline>
</glyph>
<glyph name="U" format="1">
  <advance width="623"/>
  <unicode hex="0055"/>
  <outline>
    <contour>
      <point x="664" y="720" type="line"/>
      <point x="543" y="232" type="line" smooth="yes"/>
      <point x="501" y="63"/>
      <point x="403" y="-12"/>
      <point x="276" y="-12" type="curve" smooth="yes"/>
      <point x="147" y="-12"/>
      <point x="63" y="49"/>
      <point x="63" y="173" type="curve" smooth="yes"/>
      <point x="63" y="207"/>
      <point x="68" y="243"/>
      <point x="76" y="277" type="curve" smooth="yes"/>
      <point x="186" y="720" type="line"/>
      <point x="279" y="720" type="line"/>
      <point x="169" y="275" type="line" smooth="yes"/>
      <point x="161" y="241"/>
      <point x="156" y="209"/>
      <point x="156" y="183" type="curve" smooth="yes"/>
      <point x="156" y="106"/>
      <point x="199" y="62"/>
      <point x="281" y="62" type="curve" smooth="yes"/>
      <point x="363" y="62"/>
      <point x="427" y="115"/>
      <point x="458" y="241" type="curve" smooth="yes"/>
      <point x="578" y="720" type="line"/>
    </contour>
  </outline>
</glyph>
<glyph name="V" format="1">
  <advance width="623"/>
  <unicode hex="0056"/>
  <outline>
    <contour>
      <point x="712" y="720" type="line"/>
      <point x="297" y="-7" type="line"/>
      <point x="192" y="-7" type="line"/>
      <point x="140" y="720" type="line"/>
      <point x="231" y="720" type="line"/>
      <point x="264" y="90" type="line"/>
      <point x="270" y="90" type="line"/>
      <point x="616" y="720" type="line"/>
    </contour>
  </outline>
</glyph>
<glyph name="X" format="1">
  <advance width="624"/>
  <unicode hex="0058"/>
  <outline>
    <contour>
      <point x="698" y="720" type="line"/>
      <point x="388" y="370" type="line"/>
      <point x="533" y="0" type="line"/>
      <point x="434" y="0" type="line"/>
      <point x="321" y="300" type="line"/>
      <point x="60" y="0" type="line"/>
      <point x="-39" y="0" type="line"/>
      <point x="292" y="372" type="line"/>
      <point x="156" y="720" type="line"/>
      <point x="254" y="720" type="line"/>
      <point x="358" y="442" type="line"/>
      <point x="599" y="720" type="line"/>
    </contour>
  </outline>
</glyph>
<glyph name="bracketleft" format="1">
  <advance width="351"/>
  <unicode hex="005B"/>
  <outline>
    <contour>
      <point x="442" y="720" type="line"/>
      <point x="430" y="676" type="line"/>
      <point x="254" y="683" type="line"/>
      <point x="75" y="-43" type="line"/>
      <point x="252" y="-36" type="line"/>
      <point x="242" y="-80" type="line"/>
      <point x="-20" y="-88" type="line"/>
      <point x="183" y="728" type="line"/>
    </contour>
  </outline>
</glyph>
<glyph name="bracketright" format="1">
  <advance width="351"/>
  <unicode hex="005D"/>
  <outline>
    <contour>
      <point x="401" y="728" type="line"/>
      <point x="198" y="-88" type="line"/>
      <point x="-60" y="-80" type="line"/>
      <point x="-50" y="-36" type="line"/>
      <point x="127" y="-43" type="line"/>
      <point x="306" y="683" type="line"/>
      <point x="129" y="676" type="line"/>
      <point x="140" y="720" type="line"/>
    </contour>
  </outline>
</glyph>
<glyph name="asciicircum" format="1">
  <advance width="550"/>
  <unicode hex="005E"/>
  <outline>
    <contour>
      <point x="539" y="407" type="line"/>
      <point x="483" y="407" type="line"/>
      <point x="372" y="646" type="line"/>
      <point x="142" y="407" type="line"/>
      <point x="80" y="407" type="line"/>
      <point x="346" y="725" type="line"/>
      <point x="431" y="725" type="line"/>
    </contour>
  </outline>
</glyph>
<glyph name="underscore" format="1">
  <advance width="500"/>
  <unicode hex="005F"/>
  <outline>
    <contour>
      <point x="427" y="-43" type="line"/>
      <point x="416" y="-89" type="line"/>
      <point x="-90" y="-89" type="line"/>
      <point x="-79" y="-43" type="line"/>
    </contour>
  </outline>
</glyph>
<glyph name="c" format="1">
  <advance width="451"/>
  <unicode hex="0063"/>
  <outline>
    <contour>
      <point x="449" y="381" type="curve"/>
      <point x="370" y="367" type="line"/>
      <point x="364" y="433"/>
      <point x="344" y="471"/>
      <point x="290" y="471" type="curve" smooth="yes"/>
      <point x="214" y="471"/>
      <point x="162" y="391"/>
      <point x="132" y="282" type="curve" smooth="yes"/>
      <point x="121" y="241"/>
      <point x="115" y="203"/>
      <point x="115" y="167" type="curve" smooth="yes"/>
      <point x="115" y="165" type="line" smooth="yes"/>
      <point x="115" y="87"/>
      <point x="152" y="49"/>
      <point x="205" y="49" type="curve" smooth="yes"/>
      <point x="250" y="49"/>
      <point x="286" y="80"/>
      <point x="326" y="139" type="curve"/>
      <point x="394" y="112" type="line"/>
      <point x="345" y="36"/>
      <point x="284" y="-10"/>
      <point x="198" y="-10" type="curve" smooth="yes"/>
      <point x="100" y="-10"/>
      <point x="30" y="52"/>
      <point x="30" y="171" type="curve" smooth="yes"/>
      <point x="30" y="173" type="line" smooth="yes"/>
      <point x="30" y="206"/>
      <point x="36" y="246"/>
      <point x="45" y="283" type="curve" smooth="yes"/>
      <point x="80" y="421"/>
      <point x="165" y="530"/>
      <point x="298" y="530" type="curve" smooth="yes"/>
      <point x="398" y="530"/>
      <point x="442" y="469"/>
    </contour>
  </outline>
</glyph>
<glyph name="d" format="1">
  <advance width="517"/>
  <unicode hex="0064"/>
  <outline>
    <contour>
      <point x="577" y="760" type="line"/>
      <point x="391" y="13" type="line"/>
      <point x="300" y="-9" type="line"/>
      <point x="333" y="129" type="line"/>
      <point x="328" y="129" type="line"/>
      <point x="249" y="27"/>
      <point x="199" y="-10"/>
      <point x="143" y="-10" type="curve" smooth="yes"/>
      <point x="64" y="-10"/>
      <point x="29" y="59"/>
      <point x="29" y="149" type="curve" smooth="yes"/>
      <point x="29" y="151" type="line" smooth="yes"/>
      <point x="29" y="357"/>
      <point x="149" y="529"/>
      <point x="264" y="529" type="curve" smooth="yes"/>
      <point x="330" y="529"/>
      <point x="359" y="493"/>
      <point x="399" y="413" type="curve"/>
      <point x="405" y="413" type="line"/>
      <point x="485" y="737" type="line"/>
    </contour>
    <contour>
      <point x="382" y="331" type="curve" smooth="yes"/>
      <point x="382" y="404"/>
      <point x="341" y="473"/>
      <point x="287" y="473" type="curve" smooth="yes"/>
      <point x="203" y="473"/>
      <point x="115" y="316"/>
      <point x="115" y="166" type="curve" smooth="yes"/>
      <point x="115" y="101"/>
      <point x="131" y="52"/>
      <point x="188" y="52" type="curve" smooth="yes"/>
      <point x="269" y="52"/>
      <point x="382" y="247"/>
    </contour>
  </outline>
</glyph>
<glyph name="e" format="1">
  <advance width="464"/>
  <unicode hex="0065"/>
  <outline>
    <contour>
      <point x="440" y="360" type="curve" smooth="yes"/>
      <point x="440" y="324"/>
      <point x="433" y="281"/>
      <point x="422" y="243" type="curve"/>
      <point x="116" y="243" type="line"/>
      <point x="113" y="222"/>
      <point x="111" y="200"/>
      <point x="111" y="178" type="curve" smooth="yes"/>
      <point x="111" y="176" type="line" smooth="yes"/>
      <point x="111" y="96"/>
      <point x="148" y="52"/>
      <point x="212" y="52" type="curve" smooth="yes"/>
      <point x="261" y="52"/>
      <point x="305" y="74"/>
      <point x="357" y="108" type="curve"/>
      <point x="375" y="53" type="line"/>
      <point x="319" y="14"/>
      <point x="269" y="-10"/>
      <point x="198" y="-10" type="curve" smooth="yes"/>
      <point x="92" y="-10"/>
      <point x="30" y="57"/>
      <point x="30" y="171" type="curve" smooth="yes"/>
      <point x="30" y="173" type="line" smooth="yes"/>
      <point x="30" y="208"/>
      <point x="36" y="247"/>
      <point x="45" y="284" type="curve" smooth="yes"/>
      <point x="82" y="431"/>
      <point x="176" y="530"/>
      <point x="291" y="530" type="curve" smooth="yes"/>
      <point x="401" y="530"/>
      <point x="440" y="449"/>
    </contour>
    <contour>
      <point x="361" y="362" type="curve" smooth="yes"/>
      <point x="361" y="425"/>
      <point x="344" y="476"/>
      <point x="286" y="476" type="curve" smooth="yes"/>
      <point x="218" y="476"/>
      <point x="152" y="395"/>
      <point x="126" y="287" type="curve"/>
      <point x="352" y="287" type="line"/>
      <point x="358" y="316"/>
      <point x="361" y="340"/>
    </contour>
  </outline>
</glyph>
<glyph name="l" format="1">
  <advance width="233"/>
  <unicode hex="006C"/>
  <outline>
    <contour>
      <point x="283" y="760" type="line"/>
      <point x="95" y="0" type="line"/>
      <point x="8" y="0" type="line"/>
      <point x="192" y="737" type="line"/>
    </contour>
  </outline>
</glyph>
<glyph name="m" format="1">
  <advance width="785"/>
  <unicode hex="006D"/>
  <outline>
    <contour>
      <point x="761" y="435" type="curve" smooth="yes"/>
      <point x="761" y="417"/>
      <point x="758" y="393"/>
      <point x="752" y="369" type="curve" smooth="yes"/>
      <point x="660" y="0" type="line"/>
      <point x="574" y="0" type="line"/>
      <point x="662" y="352" type="line" smooth="yes"/>
      <point x="667" y="371"/>
      <point x="669" y="391"/>
      <point x="669" y="405" type="curve" smooth="yes"/>
      <point x="669" y="439"/>
      <point x="654" y="460"/>
      <point x="616" y="460" type="curve" smooth="yes"/>
      <point x="575" y="460"/>
      <point x="524" y="422"/>
      <point x="455" y="330" type="curve"/>
      <point x="374" y="0" type="line"/>
      <point x="287" y="0" type="line"/>
      <point x="375" y="352" type="line" smooth="yes"/>
      <point x="380" y="371"/>
      <point x="383" y="391"/>
      <point x="383" y="405" type="curve" smooth="yes"/>
      <point x="383" y="439"/>
      <point x="367" y="460"/>
      <point x="330" y="460" type="curve" smooth="yes"/>
      <point x="289" y="460"/>
      <point x="238" y="421"/>
      <point x="169" y="330" type="curve"/>
      <point x="87" y="0" type="line"/>
      <point x="0" y="0" type="line"/>
      <point x="127" y="506" type="line"/>
      <point x="218" y="529" type="line"/>
      <point x="183" y="388" type="line"/>
      <point x="189" y="388" type="line"/>
      <point x="261" y="478"/>
      <point x="314" y="526"/>
      <point x="382" y="526" type="curve" smooth="yes"/>
      <point x="444" y="526"/>
      <point x="475" y="490"/>
      <point x="475" y="435" type="curve" smooth="yes"/>
      <point x="475" y="422"/>
      <point x="473" y="405"/>
      <point x="468" y="388" type="curve"/>
      <point x="475" y="388" type="line"/>
      <point x="548" y="478"/>
      <point x="601" y="526"/>
      <point x="669" y="526" type="curve" smooth="yes"/>
      <point x="731" y="526"/>
      <point x="761" y="490"/>
    </contour>
  </outline>
</glyph>
<glyph name="r" format="1">
  <advance width="379"/>
  <unicode hex="0072"/>
  <outline>
    <contour>
      <point x="430" y="529" type="curve"/>
      <point x="407" y="440" type="line"/>
      <point x="322" y="432"/>
      <point x="240" y="370"/>
      <point x="155" y="273" type="curve"/>
      <point x="87" y="0" type="line"/>
      <point x="0" y="0" type="line"/>
      <point x="127" y="506" type="line"/>
      <point x="218" y="529" type="line"/>
      <point x="169" y="330" type="line"/>
      <point x="174" y="330" type="line"/>
      <point x="272" y="461"/>
      <point x="349" y="527"/>
    </contour>
  </outline>
</glyph>
<glyph name="s" format="1">
  <advance width="414"/>
  <unicode hex="0073"/>
  <outline>
    <contour>
      <point x="415" y="458" type="curve"/>
      <point x="363" y="412" type="line"/>
      <point x="327" y="453"/>
      <point x="286" y="474"/>
      <point x="243" y="474" type="curve" smooth="yes"/>
      <point x="188" y="474"/>
      <point x="152" y="440"/>
      <point x="152" y="393" type="curve" smooth="yes"/>
      <point x="152" y="354"/>
      <point x="170" y="330"/>
      <point x="239" y="299" type="curve" smooth="yes"/>
      <point x="325" y="260"/>
      <point x="359" y="218"/>
      <point x="359" y="153" type="curve" smooth="yes"/>
      <point x="359" y="57"/>
      <point x="281" y="-9"/>
      <point x="174" y="-9" type="curve" smooth="yes"/>
      <point x="89" y="-9"/>
      <point x="30" y="22"/>
      <point x="-16" y="71" type="curve"/>
      <point x="33" y="119" type="line"/>
      <point x="72" y="74"/>
      <point x="120" y="46"/>
      <point x="179" y="46" type="curve" smooth="yes"/>
      <point x="241" y="46"/>
      <point x="280" y="85"/>
      <point x="280" y="138" type="curve" smooth="yes"/>
      <point x="280" y="181"/>
      <point x="261" y="200"/>
      <point x="189" y="236" type="curve" smooth="yes"/>
      <point x="112" y="274"/>
      <point x="74" y="314"/>
      <point x="74" y="380" type="curve" smooth="yes"/>
      <point x="74" y="464"/>
      <point x="144" y="530"/>
      <point x="248" y="530" type="curve" smooth="yes"/>
      <point x="320" y="530"/>
      <point x="373" y="502"/>
    </contour>
  </outline>
</glyph>
<glyph name="v" format="1">
  <advance width="475"/>
  <unicode hex="0076"/>
  <outline>
    <contour>
      <point x="518" y="520" type="line"/>
      <point x="218" y="-6" type="line"/>
      <point x="126" y="-6" type="line"/>
      <point x="88" y="520" type="line"/>
      <point x="174" y="520" type="line"/>
      <point x="192" y="84" type="line"/>
      <point x="429" y="520" type="line"/>
    </contour>
  </outline>
</glyph>
<glyph name="braceleft" format="1">
  <advance width="397"/>
  <unicode hex="007B"/>
  <outline>
    <contour>
      <point x="480" y="720" type="line"/>
      <point x="469" y="676" type="line"/>
      <point x="400" y="676" type="line" smooth="yes"/>
      <point x="343" y="676"/>
      <point x="312" y="652"/>
      <point x="301" y="607" type="curve" smooth="yes"/>
      <point x="288" y="558"/>
      <point x="295" y="499"/>
      <point x="282" y="447" type="curve" smooth="yes"/>
      <point x="262" y="369"/>
      <point x="215" y="343"/>
      <point x="146" y="323" type="curve"/>
      <point x="144" y="315" type="line"/>
      <point x="198" y="298"/>
      <point x="222" y="276"/>
      <point x="222" y="228" type="curve" smooth="yes"/>
      <point x="222" y="160"/>
      <point x="156" y="72"/>
      <point x="156" y="14" type="curve" smooth="yes"/>
      <point x="156" y="-17"/>
      <point x="178" y="-36"/>
      <point x="223" y="-36" type="curve" smooth="yes"/>
      <point x="291" y="-36" type="line"/>
      <point x="280" y="-80" type="line"/>
      <point x="184" y="-80" type="line" smooth="yes"/>
      <point x="110" y="-80"/>
      <point x="74" y="-52"/>
      <point x="74" y="4" type="curve" smooth="yes"/>
      <point x="74" y="81"/>
      <point x="141" y="163"/>
      <point x="141" y="226" type="curve" smooth="yes"/>
      <point x="141" y="271"/>
      <point x="105" y="298"/>
      <point x="31" y="298" type="curve"/>
      <point x="41" y="342" type="line"/>
      <point x="116" y="342"/>
      <point x="179" y="370"/>
      <point x="197" y="441" type="curve" smooth="yes"/>
      <point x="208" y="487"/>
      <point x="206" y="559"/>
      <point x="218" y="608" type="curve" smooth="yes"/>
      <point x="237" y="684"/>
      <point x="287" y="720"/>
      <point x="378" y="720" type="curve" smooth="yes"/>
    </contour>
  </outline>
</glyph>
<glyph name="bar" format="1">
  <advance width="242"/>
  <unicode hex="007C"/>
  <outline>
    <contour>
      <point x="282" y="762" type="line"/>
      <point x="46" y="-188" type="line"/>
      <point x="-28" y="-188" type="line"/>
      <point x="208" y="762" type="line"/>
    </contour>
  </outline>
</glyph>
<glyph name="cent" format="1">
  <advance width="468"/>
  <unicode hex="00A2"/>
  <outline>
    <contour>
      <point x="514" y="615" type="line"/>
      <point x="149" y="65" type="line"/>
      <point x="165" y="53"/>
      <point x="185" y="48"/>
      <point x="208" y="48" type="curve" smooth="yes"/>
      <point x="254" y="48"/>
      <point x="294" y="78"/>
      <point x="336" y="137" type="curve"/>
      <point x="397" y="112" type="line"/>
      <point x="348" y="36"/>
      <point x="285" y="-10"/>
      <point x="200" y="-10" type="curve" smooth="yes"/>
      <point x="167" y="-10"/>
      <point x="137" y="-3"/>
      <point x="112" y="11" type="curve"/>
      <point x="41" y="-95" type="line"/>
      <point x="-13" y="-95" type="line"/>
      <point x="79" y="35" type="line"/>
      <point x="48" y="66"/>
      <point x="30" y="111"/>
      <point x="30" y="171" type="curve" smooth="yes"/>
      <point x="30" y="173" type="line" smooth="yes"/>
      <point x="30" y="206"/>
      <point x="36" y="246"/>
      <point x="45" y="283" type="curve" smooth="yes"/>
      <point x="80" y="421"/>
      <point x="166" y="530"/>
      <point x="299" y="530" type="curve" smooth="yes"/>
      <point x="338" y="530"/>
      <point x="365" y="523"/>
      <point x="391" y="509" type="curve"/>
      <point x="460" y="615" type="line"/>
    </contour>
    <contour>
      <point x="356" y="454" type="line"/>
      <point x="338" y="466"/>
      <point x="319" y="473"/>
      <point x="292" y="473" type="curve" smooth="yes"/>
      <point x="215" y="473"/>
      <point x="155" y="394"/>
      <point x="125" y="283" type="curve" smooth="yes"/>
      <point x="114" y="240"/>
      <point x="108" y="205"/>
      <point x="108" y="169" type="curve" smooth="yes"/>
      <point x="108" y="167" type="line" smooth="yes"/>
      <point x="108" y="137"/>
      <point x="114" y="113"/>
      <point x="125" y="94" type="curve"/>
    </contour>
  </outline>
</glyph>
<glyph name="sterling" format="1">
  <advance width="580"/>
  <unicode hex="00A3"/>
  <outline>
    <contour>
      <point x="173" y="383" type="line"/>
      <point x="173" y="421"/>
      <point x="173" y="457"/>
      <point x="173" y="475" type="curve" smooth="yes"/>
      <point x="173" y="631"/>
      <point x="252" y="731"/>
      <point x="402" y="731" type="curve" smooth="yes"/>
      <point x="524" y="731"/>
      <point x="580" y="678"/>
      <point x="617" y="595" type="curve"/>
      <point x="540" y="561" type="line"/>
      <point x="507" y="629"/>
      <point x="472" y="663"/>
      <point x="397" y="663" type="curve" smooth="yes"/>
      <point x="304" y="663"/>
      <point x="257" y="593"/>
      <point x="257" y="483" type="curve" smooth="yes"/>
      <point x="257" y="466"/>
      <point x="257" y="424"/>
      <point x="257" y="383" type="curve"/>
      <point x="446" y="383" type="line"/>
      <point x="433" y="332" type="line"/>
      <point x="257" y="332" type="line"/>
      <point x="257" y="330"/>
      <point x="257" y="327"/>
      <point x="257" y="325" type="curve" smooth="yes"/>
      <point x="257" y="242"/>
      <point x="241" y="174"/>
      <point x="209" y="122" type="curve"/>
      <point x="249" y="85"/>
      <point x="286" y="66"/>
      <point x="332" y="66" type="curve" smooth="yes"/>
      <point x="389" y="66"/>
      <point x="427" y="96"/>
      <point x="468" y="182" type="curve"/>
      <point x="529" y="159" type="line"/>
      <point x="479" y="40"/>
      <point x="417" y="-6"/>
      <point x="334" y="-6" type="curve" smooth="yes"/>
      <point x="269" y="-6"/>
      <point x="221" y="22"/>
      <point x="166" y="69" type="curve"/>
      <point x="122" y="29"/>
      <point x="62" y="4"/>
      <point x="-14" y="-6" type="curve"/>
      <point x="3" y="61" type="line"/>
      <point x="114" y="89"/>
      <point x="173" y="163"/>
      <point x="173" y="307" type="curve" smooth="yes"/>
      <point x="173" y="315"/>
      <point x="173" y="323"/>
      <point x="173" y="332" type="curve"/>
      <point x="55" y="332" type="line"/>
      <point x="68" y="383" type="line"/>
    </contour>
  </outline>
</glyph>
<glyph name="yen" format="1">
  <advance width="617"/>
  <unicode hex="00A5"/>
  <outline>
    <contour>
      <point x="712" y="720" type="line"/>
      <point x="444" y="387" type="line"/>
      <point x="582" y="387" type="line"/>
      <point x="568" y="336" type="line"/>
      <point x="402" y="336" type="line"/>
      <point x="357" y="279" type="line"/>
      <point x="338" y="202" type="line"/>
      <point x="535" y="202" type="line"/>
      <point x="522" y="151" type="line"/>
      <point x="325" y="151" type="line"/>
      <point x="288" y="0" type="line"/>
      <point x="200" y="0" type="line"/>
      <point x="238" y="151" type="line"/>
      <point x="40" y="151" type="line"/>
      <point x="54" y="202" type="line"/>
      <point x="251" y="202" type="line"/>
      <point x="270" y="278" type="line"/>
      <point x="252" y="336" type="line"/>
      <point x="86" y="336" type="line"/>
      <point x="100" y="387" type="line"/>
      <point x="236" y="387" type="line"/>
      <point x="135" y="720" type="line"/>
      <point x="228" y="720" type="line"/>
      <point x="330" y="351" type="line"/>
      <point x="616" y="720" type="line"/>
    </contour>
  </outline>
</glyph>
<glyph name="dieresis" format="1">
  <advance width="500"/>
  <unicode hex="00A8"/>
  <outline>
    <contour>
      <point x="489" y="688" type="line"/>
      <point x="466" y="592" type="line"/>
      <point x="382" y="592" type="line"/>
      <point x="406" y="688" type="line"/>
    </contour>
    <contour>
      <point x="306" y="688" type="line"/>
      <point x="282" y="592" type="line"/>
      <point x="198" y="592" type="line"/>
      <point x="222" y="688" type="line"/>
    </contour>
  </outline>
</glyph>
<glyph name="guillemotleft" format="1">
  <advance width="468"/>
  <unicode hex="00AB"/>
  <outline>
    <contour>
      <point x="483" y="444" type="line"/>
      <point x="318" y="256" type="line"/>
      <point x="388" y="76" type="line"/>
      <point x="338" y="76" type="line"/>
      <point x="224" y="260" type="line"/>
      <point x="426" y="444" type="line"/>
    </contour>
    <contour>
      <point x="285" y="444" type="line"/>
      <point x="120" y="256" type="line"/>
      <point x="190" y="76" type="line"/>
      <point x="140" y="76" type="line"/>
      <point x="26" y="260" type="line"/>
      <point x="228" y="444" type="line"/>
    </contour>
  </outline>
</glyph>
<glyph name="degree" format="1">
  <advance width="400"/>
  <unicode hex="00B0"/>
  <outline>
    <contour>
      <point x="405" y="576" type="curve" smooth="yes"/>
      <point x="405" y="489"/>
      <point x="340" y="427"/>
      <point x="255" y="427" type="curve" smooth="yes"/>
      <point x="168" y="427"/>
      <point x="104" y="489"/>
      <point x="104" y="576" type="curve" smooth="yes"/>
      <point x="104" y="662"/>
      <point x="168" y="724"/>
      <point x="255" y="724" type="curve" smooth="yes"/>
      <point x="340" y="724"/>
      <point x="405" y="662"/>
    </contour>
    <contour>
      <point x="353" y="576" type="curve" smooth="yes"/>
      <point x="353" y="635"/>
      <point x="312" y="678"/>
      <point x="255" y="678" type="curve" smooth="yes"/>
      <point x="196" y="678"/>
      <point x="156" y="635"/>
      <point x="156" y="576" type="curve" smooth="yes"/>
      <point x="156" y="516"/>
      <point x="196" y="472"/>
      <point x="255" y="472" type="curve" smooth="yes"/>
      <point x="312" y="472"/>
      <point x="353" y="516"/>
    </contour>
  </outline>
</glyph>
<glyph name="paragraph" format="1">
  <advance width="534"/>
  <unicode hex="00B6"/>
  <outline>
    <contour>
      <point x="568" y="720" type="line"/>
      <point x="389" y="0" type="line"/>
      <point x="338" y="0" type="line"/>
      <point x="506" y="674" type="line"/>
      <point x="409" y="674" type="line"/>
      <point x="242" y="0" type="line"/>
      <point x="190" y="0" type="line"/>
      <point x="277" y="350" type="line"/>
      <point x="174" y="364"/>
      <point x="100" y="412"/>
      <point x="100" y="517" type="curve" smooth="yes"/>
      <point x="100" y="633"/>
      <point x="194" y="720"/>
      <point x="360" y="720" type="curve" smooth="yes"/>
    </contour>
  </outline>
</glyph>
<glyph name="cedilla" format="1">
  <advance width="500"/>
  <unicode hex="00B8"/>
  <outline>
    <contour>
      <point x="282" y="-103" type="curve" smooth="yes"/>
      <point x="282" y="-159"/>
      <point x="215" y="-190"/>
      <point x="115" y="-190" type="curve" smooth="yes"/>
      <point x="90" y="-190"/>
      <point x="60" y="-189"/>
      <point x="37" y="-186" type="curve"/>
      <point x="44" y="-160" type="line"/>
      <point x="63" y="-162"/>
      <point x="83" y="-164"/>
      <point x="100" y="-164" type="curve" smooth="yes"/>
      <point x="178" y="-164"/>
      <point x="217" y="-146"/>
      <point x="217" y="-117" type="curve" smooth="yes"/>
      <point x="217" y="-100"/>
      <point x="203" y="-90"/>
      <point x="179" y="-90" type="curve" smooth="yes"/>
      <point x="161" y="-90"/>
      <point x="145" y="-93"/>
      <point x="124" y="-101" type="curve"/>
      <point x="103" y="-85" type="line"/>
      <point x="181" y="0" type="line"/>
      <point x="222" y="0" type="line"/>
      <point x="170" y="-57" type="line"/>
      <point x="184" y="-53"/>
      <point x="199" y="-51"/>
      <point x="215" y="-51" type="curve" smooth="yes"/>
      <point x="256" y="-51"/>
      <point x="282" y="-70"/>
    </contour>
  </outline>
</glyph>
<glyph name="ordmasculine" format="1">
  <advance width="384"/>
  <unicode hex="00BA"/>
  <outline>
    <contour>
      <point x="403" y="600" type="curve" smooth="yes"/>
      <point x="403" y="489"/>
      <point x="337" y="367"/>
      <point x="224" y="367" type="curve" smooth="yes"/>
      <point x="153" y="367"/>
      <point x="101" y="408"/>
      <point x="101" y="493" type="curve" smooth="yes"/>
      <point x="101" y="605"/>
      <point x="168" y="727"/>
      <point x="280" y="727" type="curve" smooth="yes"/>
      <point x="352" y="727"/>
      <point x="403" y="686"/>
    </contour>
    <contour>
      <point x="338" y="295" type="line"/>
      <point x="328" y="254" type="line"/>
      <point x="53" y="254" type="line"/>
      <point x="63" y="295" type="line"/>
    </contour>
    <contour>
      <point x="341" y="604" type="curve" smooth="yes"/>
      <point x="341" y="659"/>
      <point x="317" y="684"/>
      <point x="279" y="684" type="curve" smooth="yes"/>
      <point x="206" y="684"/>
      <point x="163" y="573"/>
      <point x="163" y="490" type="curve" smooth="yes"/>
      <point x="163" y="434"/>
      <point x="188" y="409"/>
      <point x="225" y="409" type="curve" smooth="yes"/>
      <point x="299" y="409"/>
      <point x="341" y="521"/>
    </contour>
  </outline>
</glyph>
<glyph name="questiondown" format="1">
  <advance width="455"/>
  <unicode hex="00BF"/>
  <outline>
    <contour>
      <point x="404" y="673" type="curve" smooth="yes"/>
      <point x="404" y="640"/>
      <point x="380" y="616"/>
      <point x="347" y="616" type="curve" smooth="yes"/>
      <point x="314" y="616"/>
      <point x="290" y="640"/>
      <point x="290" y="673" type="curve" smooth="yes"/>
      <point x="290" y="706"/>
      <point x="314" y="729"/>
      <point x="347" y="729" type="curve" smooth="yes"/>
      <point x="380" y="729"/>
      <point x="404" y="706"/>
    </contour>
    <contour>
      <point x="398" y="122" type="line"/>
      <point x="340" y="36"/>
      <point x="267" y="-10"/>
      <point x="180" y="-10" type="curve" smooth="yes"/>
      <point x="76" y="-10"/>
      <point x="10" y="46"/>
      <point x="10" y="130" type="curve" smooth="yes"/>
      <point x="10" y="223"/>
      <point x="66" y="277"/>
      <point x="161" y="340" type="curve" smooth="yes"/>
      <point x="235" y="390"/>
      <point x="259" y="419"/>
      <point x="283" y="510" type="curve"/>
      <point x="341" y="510" type="line"/>
      <point x="321" y="388"/>
      <point x="293" y="348"/>
      <point x="207" y="291" type="curve" smooth="yes"/>
      <point x="143" y="248"/>
      <point x="99" y="202"/>
      <point x="99" y="140" type="curve" smooth="yes"/>
      <point x="99" y="87"/>
      <point x="138" y="61"/>
      <point x="190" y="61" type="curve" smooth="yes"/>
      <point x="245" y="61"/>
      <point x="289" y="90"/>
      <point x="337" y="160" type="curve"/>
    </contour>
  </outline>
</glyph>
<glyph name="Aring" format="1">
  <advance width="667"/>
  <unicode hex="00C5"/>
  <outline>
    <contour>
      <point x="573" y="859" type="curve" smooth="yes"/>
      <point x="573" y="804"/>
      <point x="531" y="766"/>
      <point x="470" y="766" type="curve" smooth="yes"/>
      <point x="408" y="766"/>
      <point x="367" y="804"/>
      <point x="367" y="859" type="curve" smooth="yes"/>
      <point x="367" y="912"/>
      <point x="408" y="951"/>
      <point x="470" y="951" type="curve" smooth="yes"/>
      <point x="531" y="951"/>
      <point x="573" y="912"/>
    </contour>
    <contour>
      <point x="577" y="0" type="line"/>
      <point x="486" y="0" type="line"/>
      <point x="472" y="185" type="line"/>
      <point x="162" y="185" type="line"/>
      <point x="55" y="0" type="line"/>
      <point x="-39" y="0" type="line"/>
      <point x="387" y="724" type="line"/>
      <point x="511" y="724" type="line"/>
    </contour>
    <contour>
      <point x="524" y="859" type="curve" smooth="yes"/>
      <point x="524" y="892"/>
      <point x="502" y="915"/>
      <point x="470" y="915" type="curve" smooth="yes"/>
      <point x="439" y="915"/>
      <point x="415" y="892"/>
      <point x="415" y="859" type="curve" smooth="yes"/>
      <point x="415" y="825"/>
      <point x="438" y="801"/>
      <point x="470" y="801" type="curve" smooth="yes"/>
      <point x="502" y="801"/>
      <point x="524" y="825"/>
    </contour>
    <contour>
      <point x="470" y="249" type="line"/>
      <point x="437" y="652" type="line"/>
      <point x="430" y="652" type="line"/>
      <point x="196" y="249" type="line"/>
    </contour>
  </outline>
</glyph>
<glyph name="AE" format="1">
  <advance width="925"/>
  <unicode hex="00C6"/>
  <outline>
    <contour>
      <point x="991" y="720" type="line"/>
      <point x="972" y="647" type="line"/>
      <point x="648" y="647" type="line"/>
      <point x="589" y="410" type="line"/>
      <point x="851" y="410" type="line"/>
      <point x="834" y="341" type="line"/>
      <point x="572" y="341" type="line"/>
      <point x="505" y="73" type="line"/>
      <point x="842" y="73" type="line"/>
      <point x="823" y="0" type="line"/>
      <point x="397" y="0" type="line"/>
      <point x="444" y="185" type="line"/>
      <point x="184" y="185" type="line"/>
      <point x="44" y="0" type="line"/>
      <point x="-55" y="0" type="line"/>
      <point x="494" y="720" type="line"/>
    </contour>
    <contour>
      <point x="560" y="649" type="line"/>
      <point x="533" y="649" type="line"/>
      <point x="228" y="249" type="line"/>
      <point x="459" y="249" type="line"/>
    </contour>
  </outline>
</glyph>
<glyph name="Ccedilla" format="1">
  <advance width="582"/>
  <unicode hex="00C7"/>
  <outline>
    <contour>
      <point x="599" y="503" type="curve"/>
      <point x="510" y="485" type="line"/>
      <point x="513" y="599"/>
      <point x="479" y="660"/>
      <point x="396" y="660" type="curve" smooth="yes"/>
      <point x="292" y="660"/>
      <point x="214" y="539"/>
      <point x="175" y="393" type="curve" smooth="yes"/>
      <point x="158" y="331"/>
      <point x="150" y="278"/>
      <point x="150" y="230" type="curve" smooth="yes"/>
      <point x="150" y="227" type="line" smooth="yes"/>
      <point x="150" y="133"/>
      <point x="188" y="60"/>
      <point x="273" y="60" type="curve" smooth="yes"/>
      <point x="350" y="60"/>
      <point x="403" y="117"/>
      <point x="450" y="221" type="curve"/>
      <point x="531" y="194" type="line"/>
      <point x="470" y="61"/>
      <point x="389" y="-9"/>
      <point x="269" y="-12" type="curve"/>
      <point x="229" y="-57" type="line"/>
      <point x="243" y="-53"/>
      <point x="258" y="-51"/>
      <point x="272" y="-51" type="curve" smooth="yes"/>
      <point x="314" y="-51"/>
      <point x="341" y="-70"/>
      <point x="341" y="-103" type="curve" smooth="yes"/>
      <point x="341" y="-159"/>
      <point x="274" y="-190"/>
      <point x="173" y="-190" type="curve" smooth="yes"/>
      <point x="148" y="-190"/>
      <point x="119" y="-189"/>
      <point x="95" y="-186" type="curve"/>
      <point x="102" y="-160" type="line"/>
      <point x="122" y="-162"/>
      <point x="142" y="-164"/>
      <point x="158" y="-164" type="curve" smooth="yes"/>
      <point x="237" y="-164"/>
      <point x="275" y="-146"/>
      <point x="275" y="-117" type="curve" smooth="yes"/>
      <point x="275" y="-100"/>
      <point x="261" y="-90"/>
      <point x="237" y="-90" type="curve" smooth="yes"/>
      <point x="219" y="-90"/>
      <point x="203" y="-93"/>
      <point x="183" y="-101" type="curve"/>
      <point x="161" y="-85" type="line"/>
      <point x="230" y="-10" type="line"/>
      <point x="121" y="4"/>
      <point x="58" y="93"/>
      <point x="58" y="229" type="curve" smooth="yes"/>
      <point x="58" y="232" type="line" smooth="yes"/>
      <point x="58" y="275"/>
      <point x="64" y="321"/>
      <point x="75" y="371" type="curve" smooth="yes"/>
      <point x="121" y="576"/>
      <point x="235" y="732"/>
      <point x="403" y="732" type="curve" smooth="yes"/>
      <point x="542" y="732"/>
      <point x="605" y="645"/>
    </contour>
  </outline>
</glyph>
<glyph name="multiply" format="1">
  <advance width="600"/>
  <unicode hex="00D7"/>
  <outline>
    <contour>
      <point x="559" y="173" type="line"/>
      <point x="506" y="120" type="line"/>
      <point x="324" y="305" type="line"/>
      <point x="142" y="120" type="line"/>
      <point x="89" y="173" type="line"/>
      <point x="274" y="355" type="line"/>
      <point x="89" y="537" type="line"/>
      <point x="142" y="590" type="line"/>
      <point x="324" y="405" type="line"/>
      <point x="506" y="590" type="line"/>
      <point x="559" y="537" type="line"/>
      <point x="374" y="355" type="line"/>
    </contour>
  </outline>
</glyph>
<glyph name="eth" format="1">
  <advance width="502"/>
  <unicode hex="00F0"/>
  <outline>
    <contour>
      <point x="541" y="762" type="line"/>
      <point x="530" y="717" type="line"/>
      <point x="437" y="674" type="line"/>
      <point x="469" y="612"/>
      <point x="486" y="543"/>
      <point x="486" y="469" type="curve" smooth="yes"/>
      <point x="486" y="466" type="line" smooth="yes"/>
      <point x="486" y="405"/>
      <point x="476" y="342"/>
      <point x="454" y="256" type="curve" smooth="yes"/>
      <point x="409" y="77"/>
      <point x="313" y="-10"/>
      <point x="197" y="-10" type="curve" smooth="yes"/>
      <point x="97" y="-10"/>
      <point x="30" y="52"/>
      <point x="30" y="171" type="curve" smooth="yes"/>
      <point x="30" y="173" type="line" smooth="yes"/>
      <point x="30" y="205"/>
      <point x="35" y="243"/>
      <point x="44" y="279" type="curve" smooth="yes"/>
      <point x="78" y="419"/>
      <point x="164" y="527"/>
      <point x="282" y="527" type="curve" smooth="yes"/>
      <point x="356" y="527"/>
      <point x="397" y="477"/>
      <point x="412" y="405" type="curve"/>
      <point x="418" y="405" type="line"/>
      <point x="427" y="502"/>
      <point x="409" y="580"/>
      <point x="372" y="648" type="curve"/>
      <point x="239" y="586" type="line"/>
      <point x="251" y="631" type="line"/>
      <point x="350" y="679" type="line"/>
      <point x="336" y="700"/>
      <point x="319" y="720"/>
      <point x="300" y="738" type="curve"/>
      <point x="378" y="762" type="line"/>
      <point x="392" y="743"/>
      <point x="405" y="724"/>
      <point x="417" y="705" type="curve"/>
    </contour>
    <contour>
      <point x="379" y="355" type="curve" smooth="yes"/>
      <point x="379" y="357" type="line" smooth="yes"/>
      <point x="379" y="437"/>
      <point x="346" y="474"/>
      <point x="292" y="474" type="curve" smooth="yes"/>
      <point x="214" y="474"/>
      <point x="160" y="390"/>
      <point x="132" y="281" type="curve" smooth="yes"/>
      <point x="121" y="237"/>
      <point x="115" y="200"/>
      <point x="115" y="166" type="curve" smooth="yes"/>
      <point x="115" y="164" type="line" smooth="yes"/>
      <point x="115" y="84"/>
      <point x="148" y="46"/>
      <point x="201" y="46" type="curve" smooth="yes"/>
      <point x="280" y="46"/>
      <point x="335" y="131"/>
      <point x="362" y="239" type="curve" smooth="yes"/>
      <point x="373" y="284"/>
      <point x="379" y="321"/>
    </contour>
  </outline>
</glyph>
<glyph name="divide" format="1">
  <advance width="600"/>
  <unicode hex="00F7"/>
  <outline>
    <contour>
      <point x="382" y="563" type="curve" smooth="yes"/>
      <point x="382" y="530"/>
      <point x="357" y="506"/>
      <point x="324" y="506" type="curve" smooth="yes"/>
      <point x="290" y="506"/>
      <point x="266" y="530"/>
      <point x="266" y="563" type="curve" smooth="yes"/>
      <point x="266" y="597"/>
      <point x="290" y="622"/>
      <point x="324" y="622" type="curve" smooth="yes"/>
      <point x="357" y="622"/>
      <point x="382" y="597"/>
    </contour>
    <contour>
      <point x="580" y="318" type="line"/>
      <point x="68" y="318" type="line"/>
      <point x="68" y="392" type="line"/>
      <point x="580" y="392" type="line"/>
    </contour>
    <contour>
      <point x="382" y="147" type="curve" smooth="yes"/>
      <point x="382" y="113"/>
      <point x="357" y="88"/>
      <point x="324" y="88" type="curve" smooth="yes"/>
      <point x="290" y="88"/>
      <point x="266" y="113"/>
      <point x="266" y="147" type="curve" smooth="yes"/>
      <point x="266" y="180"/>
      <point x="290" y="204"/>
      <point x="324" y="204" type="curve" smooth="yes"/>
      <point x="357" y="204"/>
      <point x="382" y="180"/>
    </contour>
  </outline>
</glyph>
<glyph name="oslash" format="1">
  <advance width="493"/>
  <unicode hex="00F8"/>
  <outline>
    <contour>
      <point x="543" y="615" type="line"/>
      <point x="430" y="469" type="line"/>
      <point x="452" y="440"/>
      <point x="463" y="400"/>
      <point x="463" y="349" type="curve" smooth="yes"/>
      <point x="463" y="347" type="line" smooth="yes"/>
      <point x="463" y="315"/>
      <point x="459" y="277"/>
      <point x="450" y="241" type="curve" smooth="yes"/>
      <point x="416" y="101"/>
      <point x="328" y="-10"/>
      <point x="197" y="-10" type="curve" smooth="yes"/>
      <point x="155" y="-10"/>
      <point x="120" y="1"/>
      <point x="91" y="22" type="curve"/>
      <point x="5" y="-95" type="line"/>
      <point x="-49" y="-95" type="line"/>
      <point x="63" y="51" type="line"/>
      <point x="42" y="80"/>
      <point x="30" y="120"/>
      <point x="30" y="171" type="curve" smooth="yes"/>
      <point x="30" y="173" type="line" smooth="yes"/>
      <point x="30" y="205"/>
      <point x="35" y="243"/>
      <point x="44" y="279" type="curve" smooth="yes"/>
      <point x="78" y="419"/>
      <point x="166" y="530"/>
      <point x="296" y="530" type="curve" smooth="yes"/>
      <point x="338" y="530"/>
      <point x="373" y="519"/>
      <point x="401" y="498" type="curve"/>
      <point x="488" y="615" type="line"/>
    </contour>
    <contour>
      <point x="362" y="445" type="line"/>
      <point x="346" y="466"/>
      <point x="322" y="477"/>
      <point x="293" y="477" type="curve" smooth="yes"/>
      <point x="212" y="477"/>
      <point x="154" y="395"/>
      <point x="127" y="290" type="curve" smooth="yes"/>
      <point x="115" y="246"/>
      <point x="109" y="204"/>
      <point x="109" y="168" type="curve" smooth="yes"/>
      <point x="109" y="166" type="line" smooth="yes"/>
      <point x="109" y="145"/>
      <point x="111" y="128"/>
      <point x="115" y="113" type="curve"/>
    </contour>
    <contour>
      <point x="385" y="352" type="curve" smooth="yes"/>
      <point x="385" y="354" type="line" smooth="yes"/>
      <point x="385" y="375"/>
      <point x="383" y="393"/>
      <point x="378" y="409" type="curve"/>
      <point x="132" y="76" type="line"/>
      <point x="147" y="55"/>
      <point x="171" y="44"/>
      <point x="200" y="44" type="curve" smooth="yes"/>
      <point x="282" y="44"/>
      <point x="339" y="125"/>
      <point x="367" y="231" type="curve" smooth="yes"/>
      <point x="379" y="275"/>
      <point x="385" y="316"/>
    </contour>
  </outline>
</glyph>
<glyph name="thorn" format="1">
  <advance width="517"/>
  <unicode hex="00FE"/>
  <outline>
    <contour>
      <point x="489" y="370" type="line" smooth="yes"/>
      <point x="489" y="164"/>
      <point x="368" y="-10"/>
      <point x="254" y="-10" type="curve" smooth="yes"/>
      <point x="188" y="-10"/>
      <point x="158" y="27"/>
      <point x="119" y="108" type="curve"/>
      <point x="113" y="108" type="line"/>
      <point x="40" y="-188" type="line"/>
      <point x="-47" y="-188" type="line"/>
      <point x="184" y="737" type="line"/>
      <point x="276" y="760" type="line"/>
      <point x="184" y="392" type="line"/>
      <point x="189" y="392" type="line"/>
      <point x="268" y="494"/>
      <point x="319" y="529"/>
      <point x="374" y="529" type="curve" smooth="yes"/>
      <point x="453" y="529"/>
      <point x="489" y="461"/>
      <point x="489" y="372" type="curve" smooth="yes"/>
    </contour>
    <contour>
      <point x="402" y="354" type="curve" smooth="yes"/>
      <point x="402" y="420"/>
      <point x="386" y="468"/>
      <point x="330" y="468" type="curve" smooth="yes"/>
      <point x="248" y="468"/>
      <point x="136" y="274"/>
      <point x="136" y="190" type="curve" smooth="yes"/>
      <point x="136" y="116"/>
      <point x="177" y="48"/>
      <point x="230" y="48" type="curve" smooth="yes"/>
      <point x="315" y="48"/>
      <point x="402" y="204"/>
    </contour>
  </outline>
</glyph>
<glyph name="Lslash" format="1">
  <advance width="547"/>
  <unicode hex="0141"/>
  <outline>
    <contour>
      <point x="484" y="77" type="line"/>
      <point x="464" y="0" type="line"/>
      <point x="49" y="0" type="line"/>
      <point x="128" y="317" type="line"/>
      <point x="30" y="277" type="line"/>
      <point x="50" y="354" type="line"/>
      <point x="147" y="394" type="line"/>
      <point x="228" y="720" type="line"/>
      <point x="319" y="720" type="line"/>
      <point x="248" y="432" type="line"/>
      <point x="407" y="497" type="line"/>
      <point x="388" y="420" type="line"/>
      <point x="229" y="356" type="line"/>
      <point x="159" y="77" type="line"/>
    </contour>
  </outline>
</glyph>
<glyph name="lslash" format="1">
  <advance width="305"/>
  <unicode hex="0142"/>
  <outline>
    <contour>
      <point x="330" y="464" type="line"/>
      <point x="311" y="391" type="line"/>
      <point x="217" y="352" type="line"/>
      <point x="130" y="0" type="line"/>
      <point x="46" y="0" type="line"/>
      <point x="125" y="317" type="line"/>
      <point x="31" y="278" type="line"/>
      <point x="50" y="352" type="line"/>
      <point x="144" y="390" type="line"/>
      <point x="229" y="737" type="line"/>
      <point x="318" y="760" type="line"/>
      <point x="236" y="425" type="line"/>
    </contour>
  </outline>
</glyph>
<glyph name="OE" format="1">
  <advance width="889"/>
  <unicode hex="0152"/>
  <outline>
    <contour>
      <point x="955" y="720" type="line"/>
      <point x="937" y="647" type="line"/>
      <point x="621" y="647" type="line"/>
      <point x="561" y="410" type="line"/>
      <point x="815" y="410" type="line"/>
      <point x="799" y="341" type="line"/>
      <point x="544" y="341" type="line"/>
      <point x="478" y="73" type="line"/>
      <point x="806" y="73" type="line"/>
      <point x="788" y="0" type="line"/>
      <point x="326" y="0" type="line" smooth="yes"/>
      <point x="168" y="0"/>
      <point x="60" y="80"/>
      <point x="60" y="252" type="curve" smooth="yes"/>
      <point x="60" y="255" type="line" smooth="yes"/>
      <point x="60" y="297"/>
      <point x="64" y="333"/>
      <point x="74" y="376" type="curve" smooth="yes"/>
      <point x="125" y="598"/>
      <point x="276" y="720"/>
      <point x="472" y="720" type="curve" smooth="yes"/>
    </contour>
    <contour>
      <point x="531" y="648" type="line"/>
      <point x="466" y="648" type="line" smooth="yes"/>
      <point x="328" y="648"/>
      <point x="216" y="556"/>
      <point x="171" y="385" type="curve" smooth="yes"/>
      <point x="161" y="347"/>
      <point x="155" y="301"/>
      <point x="155" y="260" type="curve" smooth="yes"/>
      <point x="155" y="257" type="line" smooth="yes"/>
      <point x="155" y="134"/>
      <point x="228" y="72"/>
      <point x="337" y="72" type="curve" smooth="yes"/>
      <point x="388" y="72" type="line"/>
    </contour>
  </outline>
</glyph>
<glyph name="oe" format="1">
  <advance width="793"/>
  <unicode hex="0153"/>
  <outline>
    <contour>
      <point x="770" y="360" type="curve" smooth="yes"/>
      <point x="770" y="324"/>
      <point x="763" y="281"/>
      <point x="752" y="243" type="curve"/>
      <point x="447" y="243" type="line"/>
      <point x="443" y="222"/>
      <point x="442" y="200"/>
      <point x="442" y="178" type="curve" smooth="yes"/>
      <point x="442" y="176" type="line" smooth="yes"/>
      <point x="442" y="95"/>
      <point x="478" y="52"/>
      <point x="546" y="52" type="curve" smooth="yes"/>
      <point x="590" y="52"/>
      <point x="635" y="74"/>
      <point x="687" y="108" type="curve"/>
      <point x="705" y="53" type="line"/>
      <point x="648" y="14"/>
      <point x="600" y="-10"/>
      <point x="533" y="-10" type="curve" smooth="yes"/>
      <point x="451" y="-10"/>
      <point x="400" y="39"/>
      <point x="390" y="129" type="curve"/>
      <point x="381" y="129" type="line"/>
      <point x="340" y="49"/>
      <point x="274" y="-10"/>
      <point x="186" y="-10" type="curve" smooth="yes"/>
      <point x="100" y="-10"/>
      <point x="30" y="52"/>
      <point x="30" y="171" type="curve" smooth="yes"/>
      <point x="30" y="173" type="line" smooth="yes"/>
      <point x="30" y="205"/>
      <point x="35" y="244"/>
      <point x="44" y="279" type="curve" smooth="yes"/>
      <point x="79" y="421"/>
      <point x="169" y="530"/>
      <point x="288" y="530" type="curve" smooth="yes"/>
      <point x="370" y="530"/>
      <point x="421" y="478"/>
      <point x="432" y="391" type="curve"/>
      <point x="438" y="391" type="line"/>
      <point x="482" y="476"/>
      <point x="544" y="530"/>
      <point x="625" y="530" type="curve" smooth="yes"/>
      <point x="731" y="530"/>
      <point x="770" y="449"/>
    </contour>
    <contour>
      <point x="691" y="362" type="curve" smooth="yes"/>
      <point x="691" y="425"/>
      <point x="673" y="476"/>
      <point x="614" y="476" type="curve" smooth="yes"/>
      <point x="548" y="476"/>
      <point x="483" y="395"/>
      <point x="456" y="287" type="curve"/>
      <point x="682" y="287" type="line"/>
      <point x="688" y="316"/>
      <point x="691" y="340"/>
    </contour>
    <contour>
      <point x="378" y="355" type="curve" smooth="yes"/>
      <point x="378" y="357" type="line" smooth="yes"/>
      <point x="378" y="434"/>
      <point x="344" y="474"/>
      <point x="288" y="474" type="curve" smooth="yes"/>
      <point x="215" y="474"/>
      <point x="161" y="391"/>
      <point x="132" y="281" type="curve" smooth="yes"/>
      <point x="121" y="237"/>
      <point x="115" y="200"/>
      <point x="115" y="166" type="curve" smooth="yes"/>
      <point x="115" y="164" type="line" smooth="yes"/>
      <point x="115" y="84"/>
      <point x="150" y="46"/>
      <point x="196" y="46" type="curve" smooth="yes"/>
      <point x="275" y="46"/>
      <point x="334" y="131"/>
      <point x="362" y="239" type="curve" smooth="yes"/>
      <point x="373" y="284"/>
      <point x="378" y="321"/>
    </contour>
  </outline>
</glyph>
<glyph name="florin" format="1">
  <advance width="428"/>
  <unicode hex="0192"/>
  <outline>
    <contour>
      <point x="488" y="705" type="curve"/>
      <point x="472" y="639" type="line"/>
      <point x="449" y="652"/>
      <point x="424" y="664"/>
      <point x="388" y="664" type="curve" smooth="yes"/>
      <point x="346" y="664"/>
      <point x="320" y="640"/>
      <point x="306" y="582" type="curve" smooth="yes"/>
      <point x="276" y="460" type="line"/>
      <point x="403" y="460" type="line"/>
      <point x="387" y="398" type="line"/>
      <point x="261" y="398" type="line"/>
      <point x="144" y="-73" type="line" smooth="yes"/>
      <point x="122" y="-163"/>
      <point x="68" y="-190"/>
      <point x="-5" y="-190" type="curve" smooth="yes"/>
      <point x="-37" y="-190"/>
      <point x="-63" y="-184"/>
      <point x="-87" y="-175" type="curve"/>
      <point x="-72" y="-116" type="line"/>
      <point x="-54" y="-124"/>
      <point x="-37" y="-130"/>
      <point x="-16" y="-130" type="curve" smooth="yes"/>
      <point x="25" y="-130"/>
      <point x="48" y="-110"/>
      <point x="60" y="-62" type="curve" smooth="yes"/>
      <point x="174" y="398" type="line"/>
      <point x="73" y="398" type="line"/>
      <point x="88" y="460" type="line"/>
      <point x="190" y="460" type="line"/>
      <point x="221" y="589" type="line" smooth="yes"/>
      <point x="244" y="686"/>
      <point x="298" y="726"/>
      <point x="380" y="726" type="curve" smooth="yes"/>
      <point x="424" y="726"/>
      <point x="459" y="717"/>
    </contour>
  </outline>
</glyph>
<glyph name="caron" format="1">
  <advance width="500"/>
  <unicode hex="02C7"/>
  <outline>
    <contour>
      <point x="528" y="752" type="line"/>
      <point x="367" y="592" type="line"/>
      <point x="295" y="592" type="line"/>
      <point x="213" y="752" type="line"/>
      <point x="255" y="752" type="line"/>
      <point x="342" y="651" type="line"/>
      <point x="479" y="752" type="line"/>
    </contour>
  </outline>
</glyph>
<glyph name="ring" format="1">
  <advance width="500"/>
  <unicode hex="02DA"/>
  <outline>
    <contour>
      <point x="454" y="678" type="curve" smooth="yes"/>
      <point x="454" y="623"/>
      <point x="412" y="585"/>
      <point x="351" y="585" type="curve" smooth="yes"/>
      <point x="289" y="585"/>
      <point x="248" y="623"/>
      <point x="248" y="678" type="curve" smooth="yes"/>
      <point x="248" y="731"/>
      <point x="289" y="770"/>
      <point x="351" y="770" type="curve" smooth="yes"/>
      <point x="412" y="770"/>
      <point x="454" y="731"/>
    </contour>
    <contour>
      <point x="405" y="678" type="curve" smooth="yes"/>
      <point x="405" y="711"/>
      <point x="383" y="734"/>
      <point x="351" y="734" type="curve" smooth="yes"/>
      <point x="320" y="734"/>
      <point x="296" y="711"/>
      <point x="296" y="678" type="curve" smooth="yes"/>
      <point x="296" y="644"/>
      <point x="319" y="620"/>
      <point x="351" y="620" type="curve" smooth="yes"/>
      <point x="383" y="620"/>
      <point x="405" y="644"/>
    </contour>
  </outline>
</glyph>
<glyph name="ogonek" format="1">
  <advance width="500"/>
  <unicode hex="02DB"/>
  <outline>
    <contour>
      <point x="273" y="-155" type="line"/>
      <point x="227" y="-178"/>
      <point x="183" y="-190"/>
      <point x="146" y="-190" type="curve" smooth="yes"/>
      <point x="87" y="-190"/>
      <point x="53" y="-165"/>
      <point x="53" y="-125" type="curve" smooth="yes"/>
      <point x="53" y="-87"/>
      <point x="90" y="-42"/>
      <point x="174" y="0" type="curve"/>
      <point x="222" y="0" type="line"/>
      <point x="150" y="-44"/>
      <point x="123" y="-84"/>
      <point x="123" y="-111" type="curve" smooth="yes"/>
      <point x="123" y="-134"/>
      <point x="143" y="-149"/>
      <point x="175" y="-149" type="curve" smooth="yes"/>
      <point x="205" y="-149"/>
      <point x="230" y="-142"/>
      <point x="267" y="-128" type="curve"/>
    </contour>
  </outline>
</glyph>
<glyph name="hungarumlaut" format="1">
  <advance width="500"/>
  <unicode hex="02DD"/>
  <outline>
    <contour>
      <point x="557" y="743" type="line"/>
      <point x="384" y="592" type="line"/>
      <point x="329" y="592" type="line"/>
      <point x="449" y="743" type="line"/>
    </contour>
    <contour>
      <point x="374" y="743" type="line"/>
      <point x="203" y="592" type="line"/>
      <point x="147" y="592" type="line"/>
      <point x="267" y="743" type="line"/>
    </contour>
  </outline>
</glyph>
<glyph name="endash" format="1">
  <advance width="500"/>
  <unicode hex="2013"/>
  <outline>
    <contour>
      <point x="477" y="319" type="line"/>
      <point x="459" y="245" type="line"/>
      <point x="33" y="245" type="line"/>
      <point x="51" y="319" type="line"/>
    </contour>
  </outline>
</glyph>
<glyph name="quoteleft" format="1">
  <advance width="198"/>
  <unicode hex="2018"/>
  <unicode hex="02BB"/>
  <outline>
    <contour>
      <point x="239" y="720" type="line"/>
      <point x="220" y="489" type="line"/>
      <point x="170" y="489" type="line"/>
      <point x="145" y="720" type="line"/>
    </contour>
  </outline>
</glyph>
<glyph name="quoteright" format="1">
  <advance width="198"/>
  <unicode hex="2019"/>
  <unicode hex="02BC"/>
  <outline>
    <contour>
      <point x="290" y="720" type="line"/>
      <point x="151" y="489" type="line"/>
      <point x="95" y="489" type="line"/>
      <point x="186" y="720" type="line"/>
    </contour>
  </outline>
</glyph>
<glyph name="quotedblleft" format="1">
  <advance width="360"/>
  <unicode hex="201C"/>
  <outline>
    <contour>
      <point x="398" y="720" type="line"/>
      <point x="378" y="489" type="line"/>
      <point x="330" y="489" type="line"/>
      <point x="304" y="720" type="line"/>
    </contour>
    <contour>
      <point x="238" y="720" type="line"/>
      <point x="218" y="489" type="line"/>
      <point x="170" y="489" type="line"/>
      <point x="145" y="720" type="line"/>
    </contour>
  </outline>
</glyph>
<glyph name="quotedblright" format="1">
  <advance width="360"/>
  <unicode hex="201D"/>
  <outline>
    <contour>
      <point x="452" y="720" type="line"/>
      <point x="313" y="489" type="line"/>
      <point x="258" y="489" type="line"/>
      <point x="349" y="720" type="line"/>
    </contour>
    <contour>
      <point x="288" y="720" type="line"/>
      <point x="149" y="489" type="line"/>
      <point x="95" y="489" type="line"/>
      <point x="186" y="720" type="line"/>
    </contour>
  </outline>
</glyph>
<glyph name="quotedblbase" format="1">
  <advance width="360"/>
  <unicode hex="201E"/>
  <outline>
    <contour>
      <point x="292" y="113" type="line"/>
      <point x="153" y="-118" type="line"/>
      <point x="98" y="-118" type="line"/>
      <point x="190" y="113" type="line"/>
    </contour>
    <contour>
      <point x="129" y="113" type="line"/>
      <point x="-10" y="-118" type="line"/>
      <point x="-65" y="-118" type="line"/>
      <point x="26" y="113" type="line"/>
    </contour>
  </outline>
</glyph>
<glyph name="dagger" format="1">
  <advance width="444"/>
  <unicode hex="2020"/>
  <outline>
    <contour>
      <point x="481" y="531" type="line"/>
      <point x="463" y="458" type="line"/>
      <point x="302" y="480" type="line"/>
      <point x="290" y="344" type="line"/>
      <point x="174" y="0" type="line"/>
      <point x="140" y="0" type="line"/>
      <point x="195" y="344" type="line"/>
      <point x="251" y="480" type="line"/>
      <point x="79" y="458" type="line"/>
      <point x="97" y="531" type="line"/>
      <point x="257" y="508" type="line"/>
      <point x="289" y="720" type="line"/>
      <point x="384" y="720" type="line"/>
      <point x="309" y="508" type="line"/>
    </contour>
  </outline>
</glyph>
<glyph name="ellipsis" format="1">
  <advance width="620"/>
  <unicode hex="2026"/>
  <outline>
    <contour>
      <point x="528" y="50" type="curve" smooth="yes"/>
      <point x="528" y="17"/>
      <point x="504" y="-7"/>
      <point x="472" y="-7" type="curve" smooth="yes"/>
      <point x="438" y="-7"/>
      <point x="414" y="17"/>
      <point x="414" y="50" type="curve" smooth="yes"/>
      <point x="414" y="83"/>
      <point x="438" y="107"/>
      <point x="472" y="107" type="curve" smooth="yes"/>
      <point x="504" y="107"/>
      <point x="528" y="83"/>
    </contour>
    <contour>
      <point x="316" y="50" type="curve" smooth="yes"/>
      <point x="316" y="17"/>
      <point x="292" y="-7"/>
      <point x="259" y="-7" type="curve" smooth="yes"/>
      <point x="226" y="-7"/>
      <point x="202" y="17"/>
      <point x="202" y="50" type="curve" smooth="yes"/>
      <point x="202" y="83"/>
      <point x="226" y="107"/>
      <point x="259" y="107" type="curve" smooth="yes"/>
      <point x="292" y="107"/>
      <point x="316" y="83"/>
    </contour>
    <contour>
      <point x="104" y="50" type="curve" smooth="yes"/>
      <point x="104" y="17"/>
      <point x="80" y="-7"/>
      <point x="47" y="-7" type="curve" smooth="yes"/>
      <point x="14" y="-7"/>
      <point x="-10" y="17"/>
      <point x="-10" y="50" type="curve" smooth="yes"/>
      <point x="-10" y="83"/>
      <point x="14" y="107"/>
      <point x="47" y="107" type="curve" smooth="yes"/>
      <point x="80" y="107"/>
      <point x="104" y="83"/>
    </contour>
  </outline>
</glyph>
<glyph name="guilsinglright" format="1">
  <advance width="270"/>
  <unicode hex="203A"/>
  <outline>
    <contour>
      <point x="244" y="260" type="line"/>
      <point x="42" y="76" type="line"/>
      <point x="-15" y="76" type="line"/>
      <point x="150" y="264" type="line"/>
      <point x="81" y="444" type="line"/>
      <point x="130" y="444" type="line"/>
    </contour>
  </outline>
</glyph>
<glyph name="Euro" format="1">
  <advance width="583"/>
  <unicode hex="20AC"/>
  <outline>
    <contour>
      <point x="606" y="536" type="curve"/>
      <point x="533" y="500" type="line"/>
      <point x="522" y="607"/>
      <point x="483" y="665"/>
      <point x="399" y="665" type="curve" smooth="yes"/>
      <point x="304" y="665"/>
      <point x="230" y="574"/>
      <point x="188" y="456" type="curve"/>
      <point x="412" y="456" type="line"/>
      <point x="399" y="407" type="line"/>
      <point x="172" y="407" type="line"/>
      <point x="162" y="371"/>
      <point x="155" y="336"/>
      <point x="151" y="303" type="curve"/>
      <point x="373" y="303" type="line"/>
      <point x="362" y="254" type="line"/>
      <point x="146" y="254" type="line"/>
      <point x="145" y="246"/>
      <point x="145" y="239"/>
      <point x="145" y="232" type="curve" smooth="yes"/>
      <point x="145" y="229" type="line" smooth="yes"/>
      <point x="145" y="132"/>
      <point x="185" y="55"/>
      <point x="278" y="55" type="curve" smooth="yes"/>
      <point x="356" y="55"/>
      <point x="415" y="110"/>
      <point x="470" y="205" type="curve"/>
      <point x="523" y="160" type="line"/>
      <point x="456" y="49"/>
      <point x="374" y="-12"/>
      <point x="269" y="-12" type="curve" smooth="yes"/>
      <point x="132" y="-12"/>
      <point x="58" y="80"/>
      <point x="58" y="229" type="curve" smooth="yes"/>
      <point x="58" y="232" type="line" smooth="yes"/>
      <point x="58" y="276"/>
      <point x="63" y="323"/>
      <point x="74" y="372" type="curve" smooth="yes"/>
      <point x="119" y="573"/>
      <point x="234" y="732"/>
      <point x="403" y="732" type="curve" smooth="yes"/>
      <point x="528" y="732"/>
      <point x="590" y="660"/>
    </contour>
  </outline>
</glyph>
<glyph name="trademark" format="1">
  <advance width="780"/>
  <unicode hex="2122"/>
  <outline>
    <contour>
      <point x="830" y="720" type="line"/>
      <point x="746" y="380" type="line"/>
      <point x="696" y="380" type="line"/>
      <point x="769" y="669" type="line"/>
      <point x="766" y="669" type="line"/>
      <point x="596" y="380" type="line"/>
      <point x="541" y="380" type="line"/>
      <point x="516" y="669" type="line"/>
      <point x="513" y="669" type="line"/>
      <point x="441" y="380" type="line"/>
      <point x="392" y="380" type="line"/>
      <point x="476" y="720" type="line"/>
      <point x="559" y="720" type="line"/>
      <point x="582" y="441" type="line"/>
      <point x="584" y="441" type="line"/>
      <point x="748" y="720" type="line"/>
    </contour>
    <contour>
      <point x="414" y="720" type="line"/>
      <point x="402" y="676" type="line"/>
      <point x="297" y="676" type="line"/>
      <point x="223" y="380" type="line"/>
      <point x="170" y="380" type="line"/>
      <point x="243" y="676" type="line"/>
      <point x="137" y="676" type="line"/>
      <point x="148" y="720" type="line"/>
    </contour>
  </outline>
</glyph>
<glyph name="apple" format="1">
  <advance width="500"/>
  <unicode hex="F8FF"/>
  <outline>
    <contour>
      <point x="535" y="525" type="line"/>
      <point x="341" y="505" type="line"/>
      <point x="442" y="351" type="line"/>
      <point x="442" y="347" type="line"/>
      <point x="268" y="212" type="line"/>
      <point x="443" y="165" type="line"/>
      <point x="395" y="84" type="line"/>
      <point x="247" y="183" type="line"/>
      <point x="227" y="0" type="line"/>
      <point x="138" y="0" type="line"/>
      <point x="214" y="184" type="line"/>
      <point x="21" y="113" type="line"/>
      <point x="15" y="195" type="line"/>
      <point x="208" y="215" type="line"/>
      <point x="108" y="369" type="line"/>
      <point x="108" y="373" type="line"/>
      <point x="282" y="508" type="line"/>
      <point x="107" y="555" type="line"/>
      <point x="154" y="636" type="line"/>
      <point x="303" y="537" type="line"/>
      <point x="322" y="720" type="line"/>
      <point x="411" y="720" type="line"/>
      <point x="335" y="536" type="line"/>
      <point x="528" y="607" type="line"/>
    </contour>
    <contour>
      <point x="360" y="353" type="line"/>
      <point x="309" y="494" type="line"/>
      <point x="190" y="367" type="line"/>
      <point x="241" y="226" type="line"/>
    </contour>
  </outline>
</glyph>
<glyph name="a.salt" format="1">
  <advance width="492"/>
  <outline>
    <contour>
      <point x="450" y="419" type="curve" smooth="yes"/>
      <point x="450" y="400"/>
      <point x="448" y="380"/>
      <point x="442" y="355" type="curve" smooth="yes"/>
      <point x="379" y="105" type="line" smooth="yes"/>
      <point x="377" y="96"/>
      <point x="375" y="84"/>
      <point x="375" y="76" type="curve" smooth="yes"/>
      <point x="375" y="53"/>
      <point x="387" y="38"/>
      <point x="416" y="34" type="curve"/>
      <point x="406" y="-5" type="line"/>
      <point x="328" y="-1"/>
      <point x="294" y="32"/>
      <point x="296" y="83" type="curve"/>
      <point x="289" y="83" type="line"/>
      <point x="222" y="20"/>
      <point x="177" y="-8"/>
      <point x="119" y="-8" type="curve" smooth="yes"/>
      <point x="53" y="-8"/>
      <point x="5" y="31"/>
      <point x="5" y="103" type="curve" smooth="yes"/>
      <point x="5" y="221"/>
      <point x="109" y="306"/>
      <point x="347" y="307" type="curve"/>
      <point x="360" y="357" type="line" smooth="yes"/>
      <point x="364" y="373"/>
      <point x="366" y="388"/>
      <point x="366" y="400" type="curve" smooth="yes"/>
      <point x="366" y="444"/>
      <point x="340" y="464"/>
      <point x="284" y="464" type="curve" smooth="yes"/>
      <point x="234" y="464"/>
      <point x="198" y="454"/>
      <point x="132" y="426" type="curve"/>
      <point x="119" y="482" type="line"/>
      <point x="186" y="511"/>
      <point x="239" y="526"/>
      <point x="305" y="526" type="curve" smooth="yes"/>
      <point x="404" y="526"/>
      <point x="450" y="488"/>
    </contour>
    <contour>
      <point x="339" y="268" type="line"/>
      <point x="150" y="267"/>
      <point x="89" y="194"/>
      <point x="89" y="120" type="curve" smooth="yes"/>
      <point x="89" y="74"/>
      <point x="119" y="48"/>
      <point x="164" y="48" type="curve" smooth="yes"/>
      <point x="204" y="48"/>
      <point x="247" y="74"/>
      <point x="304" y="131" type="curve"/>
    </contour>
  </outline>
</glyph>
<glyph name="bullet" format="1">
  <advance width="377"/>
  <outline>
    <contour>
      <point x="352" y="373" type="curve" smooth="yes"/>
      <point x="352" y="297"/>
      <point x="292" y="238"/>
      <point x="216" y="238" type="curve" smooth="yes"/>
      <point x="140" y="238"/>
      <point x="81" y="297"/>
      <point x="81" y="373" type="curve" smooth="yes"/>
      <point x="81" y="449"/>
      <point x="140" y="508"/>
      <point x="216" y="508" type="curve" smooth="yes"/>
      <point x="292" y="508"/>
      <point x="352" y="449"/>
    </contour>
  </outline>
</glyph>
<glyph name="macron" format="1">
  <advance width="500"/>
  <outline>
    <contour>
      <point x="498" y="691" type="line"/>
      <point x="482" y="629" type="line"/>
      <point x="200" y="629" type="line"/>
      <point x="215" y="691" type="line"/>
    </contour>
  </outline>
</glyph>
<glyph name="registered.big" format="1">
  <advance width="832"/>
  <outline>
    <contour>
      <point x="813" y="360" type="curve" smooth="yes"/>
      <point x="813" y="150"/>
      <point x="651" y="-12"/>
      <point x="441" y="-12" type="curve" smooth="yes"/>
      <point x="229" y="-12"/>
      <point x="69" y="149"/>
      <point x="69" y="360" type="curve" smooth="yes"/>
      <point x="69" y="570"/>
      <point x="230" y="732"/>
      <point x="441" y="732" type="curve" smooth="yes"/>
      <point x="652" y="732"/>
      <point x="813" y="571"/>
    </contour>
    <contour>
      <point x="775" y="360" type="curve" smooth="yes"/>
      <point x="775" y="553"/>
      <point x="633" y="699"/>
      <point x="441" y="699" type="curve" smooth="yes"/>
      <point x="248" y="699"/>
      <point x="107" y="553"/>
      <point x="107" y="360" type="curve" smooth="yes"/>
      <point x="107" y="167"/>
      <point x="248" y="21"/>
      <point x="441" y="21" type="curve" smooth="yes"/>
      <point x="634" y="21"/>
      <point x="775" y="167"/>
    </contour>
    <contour>
      <point x="609" y="161" type="line"/>
      <point x="536" y="161" type="line"/>
      <point x="427" y="334" type="line"/>
      <point x="378" y="334" type="line"/>
      <point x="378" y="161" type="line"/>
      <point x="313" y="161" type="line"/>
      <point x="313" y="570" type="line"/>
      <point x="450" y="570" type="line" smooth="yes"/>
      <point x="536" y="570"/>
      <point x="592" y="531"/>
      <point x="592" y="454" type="curve" smooth="yes"/>
      <point x="592" y="391"/>
      <point x="554" y="353"/>
      <point x="494" y="341" type="curve"/>
    </contour>
    <contour>
      <point x="525" y="453" type="curve" smooth="yes"/>
      <point x="525" y="497"/>
      <point x="498" y="520"/>
      <point x="444" y="520" type="curve" smooth="yes"/>
      <point x="377" y="520" type="line"/>
      <point x="377" y="383" type="line"/>
      <point x="445" y="383" type="line" smooth="yes"/>
      <point x="497" y="383"/>
      <point x="525" y="405"/>
    </contour>
  </outline>
</glyph>
